<?xml version="1.0" encoding="UTF-8"?><svg id="Layer_1" xmlns="http://www.w3.org/2000/svg" viewBox="0 0 450.72 314.33"><defs><style>.cls-1{fill:#262626;}</style></defs><path class="cls-1" d="M284.02,212.35c.43,1.05,.86,2.1,1.35,3.08,.49,.99,1.04,1.86,1.83,2.48,.8,.63,1.87,1.12,2.87,1.68,1.01,.57,2.04,1.09,3.01,1.83,1.88,1.46,3.3,3.33,4.53,5.26,1.22,1.95,2.25,4.01,3.08,6.14-.98-2.06-2.15-4.03-3.48-5.87-1.34-1.82-2.87-3.54-4.71-4.77-.89-.6-1.96-1.06-2.99-1.54-1.03-.49-2.11-.89-3.18-1.6-1.09-.72-1.84-1.8-2.44-2.8-.6-1.03-1.12-2.06-1.62-3.1l1.73-.79Z"/><path class="cls-1" d="M73.5,180.23s-.02,0,0,0h0Z"/><path class="cls-1" d="M145.85,170.95l.17-.03s-.02,0-.02,0c-.05,.02,.07-.02,.1-.03,.13-.04,.28-.09,.44-.16,.33-.13,.69-.29,1.06-.47,.74-.36,1.51-.78,2.26-1.23,1.52-.89,3.02-1.9,4.48-2.96,1.46-1.07,2.89-2.2,4.27-3.39,.72-.61,1.26-1.15,2.27-1.96,.89-.7,1.79-1.29,2.71-1.83,3.66-2.12,7.4-3.42,11.13-4.53,3.75-1.08,7.45-1.89,11.3-2.49l-1.41,.74c3.53-3.52,7.03-7.13,10.41-10.79,1.69-1.83,3.36-3.68,4.95-5.56,.79-.94,1.56-1.89,2.25-2.84,.35-.47,.67-.95,.93-1.38,.12-.21,.22-.43,.25-.5,.03-.05-.01-.02,0,.17,0,.08,.01,.17,.04,.25l-.03-.12c-.02-.08-.03-.1-.07-.29-.21-1.15,.1-2.12,.5-2.92,.41-.8,.93-1.4,1.46-1.94,1.07-1.06,2.21-1.84,3.37-2.54,2.32-1.37,4.73-2.37,7.14-3.2,4.79-1.61,9.51-2.97,14.07-4.82,2.27-.92,4.51-1.94,6.57-3.2,1.03-.63,2.01-1.32,2.88-2.11,.44-.39,.84-.81,1.2-1.25,.09-.11,.18-.22,.26-.34l.28-.38c.18-.24,.38-.51,.6-.77,3.39-4.11,7.93-6.7,12.29-9.15,2.2-1.22,4.4-2.41,6.55-3.68,2.14-1.27,4.26-2.68,6.46-3.89,4.39-2.46,8.9-4.67,13.49-6.65-4.52,2.16-8.94,4.53-13.22,7.14-2.15,1.29-4.18,2.75-6.31,4.12-2.13,1.36-4.3,2.64-6.44,3.94-4.25,2.59-8.56,5.33-11.46,9.16-.17,.23-.35,.47-.53,.73l-.26,.38c-.1,.14-.2,.28-.3,.42-.41,.55-.87,1.06-1.35,1.53-.97,.94-2.02,1.74-3.11,2.47-2.18,1.45-4.48,2.59-6.8,3.64-4.64,2.08-9.43,3.66-14.03,5.41-2.26,.87-4.45,1.9-6.42,3.16-.97,.63-1.89,1.33-2.58,2.08-.34,.37-.62,.75-.76,1.07-.16,.31-.15,.6-.13,.62-.02-.04,.02,.08,.04,.14,0,.03,.03,.09,.02,.09,.04,.15,.07,.32,.08,.47,.02,.49-.08,.83-.15,1.07-.16,.51-.33,.85-.51,1.2-.35,.66-.71,1.23-1.09,1.78-.75,1.1-1.52,2.13-2.31,3.14-1.58,2.02-3.21,3.97-4.86,5.9-3.31,3.85-6.68,7.59-10.14,11.31l-.53,.57-.88,.17c-3.49,.68-7.1,1.62-10.53,2.75-3.43,1.15-6.82,2.52-9.68,4.33-.71,.45-1.37,.93-1.96,1.44-.47,.39-1.27,1.21-1.98,1.85-1.46,1.35-2.97,2.65-4.53,3.88-1.57,1.24-3.12,2-4.83,3.1-.86,.55-2.04,1.07-2.99,1.57-.47,.25-1.06,.38-1.6,.62-.27,.12-1.44,.34-1.76,.46-.19,.06-.29,.1-.57,.18l-.36,.09-.17,.04,.37-5.79Z"/><path class="cls-1" d="M262.14,160.83c.82,.25,1.74,.72,2.46,1.3,.74,.59,1.33,1.29,1.8,2.03,.93,1.48,1.41,3.04,1.73,4.55,.62,3.05,.66,6.01,.62,8.94-.06,2.93-.25,5.81-.42,8.67-.16,2.85-.32,5.7-.16,8.43,.08,1.35,.25,2.7,.67,3.77,.1,.27,.23,.51,.36,.71,.07,.1,.14,.19,.21,.27,.04,.04,.06,.07,.12,.12l.19,.19,1.52,1.49c2.04,1.97,4.11,3.9,6.24,5.74,2.14,1.83,4.34,3.61,6.69,4.99,.59,.34,1.19,.64,1.78,.88,.3,.12,.59,.21,.88,.28,.14,.03,.28,.06,.42,.07l.49,.05c1.31,.09,2.74-.1,4.26-.15,1.51-.05,3.16,.08,4.65,.73,1.49,.63,2.71,1.67,3.69,2.81,.49,.58,.93,1.18,1.34,1.8,.39,.61,.77,1.22,1.14,1.83,.74,1.23,1.45,2.47,2.16,3.7,1.42,2.47,2.81,4.94,4.43,7.23,.81,1.14,1.68,2.24,2.68,3.17,.99,.93,2.15,1.71,3.44,1.92,1.4,.22,2.81,.31,4.24,.26,1.43-.05,2.95-.11,4.41,.16,1.46,.26,2.84,.66,4.23,1.2,1.37,.63,2.49,1.58,3.52,2.58,2.04,2.03,3.74,4.35,5.31,6.72,1.57,2.38,3.01,4.84,4.31,7.38-1.38-2.49-2.89-4.91-4.52-7.24-1.64-2.32-3.39-4.58-5.46-6.51-1.03-.95-2.16-1.84-3.43-2.37-1.3-.47-2.72-.83-4.1-1.04-1.4-.22-2.8-.13-4.27-.03-1.47,.09-2.96,.04-4.43-.15-1.6-.22-2.93-1.1-4.04-2.07-1.11-.98-2.05-2.11-2.93-3.26-1.74-2.31-3.22-4.77-4.71-7.19-.74-1.21-1.49-2.42-2.25-3.61-.78-1.19-1.53-2.37-2.42-3.35-.9-.99-1.94-1.8-3.12-2.26-1.18-.47-2.49-.56-3.87-.47-1.38,.08-2.85,.32-4.45,.27-.19,0-.43-.02-.6-.04-.22-.02-.44-.05-.65-.1-.42-.08-.81-.2-1.19-.34-.75-.27-1.44-.6-2.1-.96-2.63-1.45-4.93-3.22-7.19-5.03-2.24-1.82-4.4-3.73-6.52-5.66l-1.58-1.45-.19-.18c-.07-.07-.18-.17-.26-.26-.17-.18-.32-.37-.45-.57-.27-.39-.47-.78-.64-1.18-.65-1.58-.84-3.11-.98-4.61-.24-2.99-.13-5.9-.05-8.78,.1-2.88,.22-5.73,.2-8.55-.02-2.8-.15-5.61-.74-8.16-.3-1.26-.73-2.45-1.35-3.37-.64-.93-1.36-1.5-2.39-1.79l1.24-3.56Z"/><path class="cls-1" d="M315.32,200.56c2.02,.39,4.16,.58,6.29,.72,2.14,.13,4.3,.2,6.45,.21,4.31,.02,8.65-.11,12.94-.55,2.14-.25,4.25-.5,6.2-1.22,.61-.2,1.25-.32,1.91-.33,.66-.01,1.31,.11,1.88,.28,1.15,.34,2.08,.78,3.07,1.07,3.91,1.21,8.31,.6,12.49-.33,4.2-1.01,8.41-2.27,12.4-3.95l1.51-.65c.51-.21,1.03-.45,1.67-.57,.65-.13,1.32,0,1.86,.19,.55,.19,1.05,.41,1.54,.63,1.96,.91,3.9,1.81,5.89,2.65,1.96,.84,4,1.48,6.12,1.79,2.12,.32,4.29,.28,6.44-.02,2.15-.28,4.29-.81,6.49-.98,2.19-.19,4.42,.14,6.37,1.05-1.99-.85-4.2-1.11-6.36-.85-2.16,.24-4.28,.83-6.45,1.17-2.17,.37-4.4,.48-6.59,.22-2.19-.26-4.32-.85-6.35-1.65-2.01-.79-4-1.65-5.97-2.5-.98-.39-1.98-.87-2.82-.68-.89,.21-1.91,.79-2.91,1.23-2.02,.92-4.09,1.71-6.18,2.42-2.09,.71-4.19,1.36-6.35,1.92-2.15,.54-4.34,.98-6.58,1.16-2.23,.19-4.56,.09-6.77-.54-1.1-.29-2.14-.73-3.07-.98-.93-.26-1.76-.22-2.64,.09l-.36,.13-.43,.16c-.28,.1-.57,.18-.85,.26-.56,.15-1.11,.28-1.67,.39-1.11,.23-2.21,.4-3.31,.55-4.4,.57-8.79,.82-13.19,.91-2.2,.04-4.4,.04-6.61-.04-2.21-.09-4.42-.21-6.67-.58l.57-2.76Z"/><path class="cls-1" d="M179.75,164.96c.41,.07,1.16,.24,1.67,.43,.56,.19,1.09,.43,1.59,.69,1.01,.54,1.9,1.2,2.69,1.91,1.59,1.43,2.84,3.04,3.99,4.67,2.27,3.25,4.1,6.64,6.3,9.65,1.1,1.49,2.28,2.89,3.67,3.91,.69,.51,1.43,.92,2.21,1.16,.39,.13,.76,.2,1.28,.29,.54,.11,1.07,.25,1.56,.41,2.01,.66,3.78,1.66,5.43,2.77,1.65,1.11,3.19,2.34,4.67,3.62,2.96,2.55,5.65,5.35,8.44,7.94,.7,.63,1.42,1.27,2.16,1.76,.19,.12,.37,.23,.55,.31,.09,.04,.17,.07,.24,.09,.04,.01,.06,.01,.1,.02l.19,.03c.56,.09,1.01,.21,1.5,.33,1.91,.51,3.76,1.09,5.62,1.67,3.71,1.18,7.4,2.42,11.08,3.68,3.67,1.28,7.36,2.52,10.98,3.94-3.67-1.27-7.41-2.37-11.13-3.49-3.73-1.11-7.46-2.2-11.21-3.23-1.88-.51-3.76-1.02-5.64-1.43-.46-.1-.96-.2-1.37-.25l-.17-.02c-.09-.01-.19-.02-.27-.04-.16-.04-.31-.09-.45-.14-.27-.11-.51-.24-.73-.37-.89-.54-1.64-1.17-2.4-1.8-2.96-2.53-5.73-5.18-8.72-7.55-1.49-1.18-3.02-2.31-4.62-3.29-1.6-.98-3.27-1.82-4.99-2.31-.43-.12-.86-.21-1.27-.28-.45-.06-1.05-.14-1.59-.3-1.09-.3-2.09-.81-2.98-1.4-1.78-1.21-3.16-2.74-4.41-4.29-2.47-3.12-4.45-6.45-6.72-9.42-2.24-2.93-4.85-5.64-7.99-5.98l.74-3.68Z"/><path class="cls-1" d="M178.87,74.87c-3.81,.73-7.61,1.59-11.34,2.67-1.86,.55-3.72,1.15-5.47,1.94-.86,.4-1.74,.85-2.4,1.45-.16,.15-.3,.32-.39,.47-.1,.17-.22,.44-.35,.65-.26,.44-.57,.86-.93,1.23-.54,.56-1.14,1.03-1.77,1.43-.15,.1-.31,.2-.47,.28,0,0,0,0-.01,0-.04,.03-.09,.06-.14,.09-.31,.17-.63,.34-.95,.49-.1,.06-.19,.11-.3,.15h0c-.34,.17-.68,.33-1.01,.48l-.27,.12c-.06,.03-.11,.05-.17,.08-.71,.31-1.43,.61-2.13,.91-.07,.03-.15,.06-.22,.09-.52,.23-1.03,.46-1.53,.69-.07,.04-.14,.08-.22,.11-.39,.2-.78,.4-1.16,.61-.22,.13-.45,.27-.67,.41-.07,.04-.14,.08-.21,.13-3,1.83-5.93,3.86-8.92,5.79-2.33,1.52-4.67,3.02-7.06,4.46-.13,.08-.25,.16-.38,.24h-.01c-.58,.35-1.18,.7-1.77,1.04-.1,.06-.19,.12-.29,.17-.16,.1-.32,.19-.48,.28-.33,.19-.66,.37-.99,.55-.08,.05-.16,.1-.25,.14-.19,.11-.38,.21-.57,.3-.05,.04-.1,.07-.15,.09-.42,.23-.85,.46-1.29,.67-.05,.03-.1,.06-.16,.08-.58,.29-1.16,.57-1.76,.84-.04,.02-.09,.04-.13,.06-.06,.03-.12,.05-.18,.08-.83,.36-1.69,.69-2.63,.95-.03,.01-.07,.02-.1,.03-.13,.03-.25,.06-.38,.09h-.01c-.4,.09-.82,.17-1.28,.19-.17,0-.3,.01-.49,0-.2-.02-.42-.04-.5-.06l-.37-.08c-.09-.01-.18-.03-.27-.04-1.01-.12-2.07,.15-3.09,.66-.01,0-.01,.01-.01,.01-.06,.01-.11,.04-.17,.08-.44,.22-.87,.49-1.28,.79-.44,.32-.87,.67-1.28,1.04-.06,.06-.12,.11-.18,.16-.26,.25-.52,.5-.76,.76-.05,.04-.09,.07-.11,.11-.04,.02-.06,.05-.08,.08-.15,.15-.3,.3-.43,.46-.05,.04-.09,.09-.12,.13-.33,.35-.64,.72-.94,1.09-.08,.1-.16,.2-.24,.31-.05,.05-.09,.1-.13,.16-.56,.71-1.1,1.45-1.61,2.21-.03,.04-.06,.08-.09,.13-.05,.07-.1,.14-.15,.22-1.4,2.08-2.66,4.29-3.83,6.54-1.4,2.71-2.68,5.47-3.87,8.29h0c-.3,.71-.59,1.41-.88,2.12-.11,.3-.23,.59-.37,.88-1.3,3.12-3.18,6.16-5.53,8.75-.21,.25-.45,.5-.68,.74-.32,.33-.64,.65-.97,.96-2.68,2.56-5.8,4.63-9.05,6.27-1.03,.52-2.08,.99-3.13,1.43-.1,.05-.2,.1-.31,.13h0c-.64,.28-1.28,.53-1.93,.77-.06,.03-.11,.05-.16,.07-.29,.1-.58,.2-.86,.3-.06,.03-.12,.05-.18,.07h-.01s-.09,.04-.14,.06h-.01c-.38,.13-.75,.26-1.13,.38l-.18,.06c-.14,.05-.28,.09-.42,.14-.05,.02-.1,.03-.15,.05l-.09,.03-.21,.06c-.34,.11-.67,.21-1,.32-.08,.02-.16,.04-.24,.07-.13,.03-.25,.07-.37,.11-.15,.04-.29,.08-.43,.12-.12,.04-.25,.07-.37,.11-.41,.12-.81,.23-1.22,.34-.12,.04-.24,.07-.36,.1-3.29,.9-6.6,1.65-9.61,2.59-.87,.27-1.7,.57-2.39,.91-.34,.16-.65,.34-.87,.5-.21,.14-.36,.31-.7,.65-1.18,1.23-2.34,2.74-3.51,4.25-2.35,3.05-4.7,6.27-7.63,9.29l-.76,.76c-1.28,1.23-2.7,2.42-4.41,3.43-.3,.17-.61,.34-.93,.49-.79,.4-1.63,.74-2.56,.97-.65,.17-1.33,.28-2.03,.33-.35,.02-.68,.02-1.07,.01l-.58-.04-.36-.05,.03-.17,.18-1.19,.76-4.82,.35,.06h.14c.1,.02,.26,.03,.38,.02,.28-.01,.56-.04,.86-.1,.59-.12,1.23-.38,1.9-.74,.23-.12,.46-.26,.69-.4,1.1-.69,2.21-1.62,3.29-2.63,2.59-2.49,4.96-5.48,7.45-8.51,1.26-1.52,2.53-3.06,4.09-4.6,.36-.34,.9-.87,1.51-1.26,.59-.39,1.15-.67,1.69-.91,1.08-.47,2.1-.79,3.1-1.08,.07-.02,.13-.04,.2-.05,2.06-.56,4.05-1,6.01-1.43,.49-.11,.96-.21,1.44-.32h.01c.14-.03,.29-.06,.43-.1,.05-.01,.1-.02,.14-.03,.61-.14,1.22-.28,1.83-.43,.03-.01,.06-.01,.09-.02,.41-.09,.83-.19,1.24-.3,.01,0,.03-.01,.04-.01,.46-.12,.91-.24,1.37-.37h.03c.16-.04,.32-.08,.48-.13h.01c.17-.04,.33-.09,.5-.14h0c.1-.03,.18-.05,.27-.08,.03,0,.06,0,.08-.02,.05-.01,.1-.03,.14-.05,.03,0,.06-.01,.08-.02,.01,0,.02,0,.03-.01,.06-.01,.11-.03,.16-.04,.06-.02,.11-.03,.16-.05,.07-.02,.13-.04,.2-.06h0c.05,0,.09-.03,.14-.04h.02c.06-.03,.12-.04,.18-.06,.05-.02,.08-.03,.13-.04,.01,0,.01-.01,.02-.01,.13-.04,.27-.08,.4-.12l.27-.09h.01c.22-.07,.44-.14,.66-.21h0s.01,0,.01-.01c.05-.02,.09-.04,.14-.04,.01,0,.02-.01,.03-.01,.09-.04,.18-.07,.27-.1h.01c.23-.08,.48-.17,.71-.25h.01c.23-.08,.46-.17,.69-.26,.46-.17,.92-.34,1.38-.53,.15-.06,.29-.12,.44-.18,.54-.22,1.07-.46,1.59-.7,3.36-1.55,6.48-3.55,9.08-6.08,2.61-2.55,4.63-5.56,6.09-8.98,1.6-3.57,3.32-7.1,5.25-10.53,1.32-2.34,2.74-4.65,4.35-6.86,.43-.61,.89-1.22,1.36-1.82,.33-.4,.66-.8,1-1.19,.43-.49,.87-.97,1.34-1.44,.04-.05,.08-.09,.13-.13,.04-.04,.08-.08,.12-.11,.05-.07,.1-.12,.16-.17,0-.01,0-.01,.02-.02,.26-.25,.52-.49,.79-.74,.12-.1,.25-.21,.38-.32,.13-.11,.26-.22,.4-.33,.39-.32,.8-.62,1.23-.91,.89-.6,1.85-1.12,2.93-1.47,1.06-.35,2.26-.51,3.43-.33,.14,.02,.29,.06,.43,.09l.34,.08c.15,.03,.18,.02,.22,.03,.05,.01,.16,.01,.23,.01,.36-.01,.78-.07,1.2-.17,.29-.07,.58-.15,.87-.24l.3-.09c.48-.16,.96-.33,1.44-.52,.65-.26,1.3-.55,1.94-.86,.06,0,.12-.04,.17-.07,.89-.41,1.77-.85,2.64-1.31,.09-.04,.17-.08,.25-.13l.18-.09c.65-.34,1.3-.7,1.95-1.05,.1-.06,.2-.11,.29-.16,1.07-.59,2.13-1.2,3.18-1.81,.05-.03,.09-.06,.14-.08,1.52-.89,3.02-1.8,4.53-2.71,2.91-1.74,5.75-3.57,8.73-5.27,.07-.05,.14-.09,.21-.12,.37-.22,.75-.43,1.13-.64,.39-.2,.79-.39,1.19-.57,.07-.04,.14-.07,.22-.1,.59-.27,1.18-.51,1.77-.74,.08-.03,.15-.06,.22-.09,.68-.27,1.36-.52,2.04-.79,.23-.09,.46-.19,.69-.29,.09-.03,.18-.07,.27-.11,.43-.18,.86-.37,1.27-.57,.11-.05,.22-.11,.32-.16,.87-.45,1.68-.97,2.36-1.64,.33-.32,.62-.68,.86-1.06,.14-.2,.21-.37,.36-.62,.17-.26,.36-.45,.56-.63,.8-.69,1.72-1.1,2.62-1.49,1.83-.76,3.71-1.3,5.6-1.79,3.78-.96,7.61-1.68,11.44-2.29Z"/><path class="cls-1" d="M55.24,152.07c2.65-2.47,5.26-5.05,7.74-7.69,1.24-1.32,2.45-2.67,3.59-4.05,1.12-1.38,2.24-2.82,2.98-4.25,.18-.35,.33-.71,.4-.99,.04-.14,.04-.25,.05-.31,0-.03,0-.03,0-.03,0,0,0,.02,.02,.02l-.1-.2c-.2-.44-.24-.81-.25-1.15,0-.34,.04-.64,.09-.93,.12-.57,.3-1.06,.5-1.53,.83-1.84,1.93-3.37,3.05-4.88,2.27-2.98,4.75-5.72,7.35-8.38l.28-.29,.36,.04c.11,.01,.43-.03,.64-.12,.23-.09,.46-.23,.67-.41,.41-.36,.74-.87,.98-1.44,.24-.57,.4-1.2,.51-1.84,.05-.32,.1-.65,.12-.98,.02-.23,.03-.33,.08-.56,.04-.22,.1-.4,.16-.59,.54-1.47,1.5-2.58,2.48-3.61,1-1.02,2.08-1.93,3.19-2.8,2.23-1.72,4.59-3.24,7-4.67,1.21-.71,2.43-1.39,3.66-2.04,1.24-.63,2.47-1.32,3.8-1.76-1.3,.51-2.49,1.24-3.71,1.93-1.2,.71-2.39,1.44-3.56,2.2-2.33,1.52-4.6,3.14-6.72,4.93-1.05,.9-2.06,1.84-2.97,2.85-.89,1.01-1.72,2.12-2.08,3.29-.04,.14-.08,.29-.09,.41-.02,.1-.04,.35-.04,.46-.02,.36-.04,.71-.09,1.07-.09,.72-.23,1.44-.49,2.16-.26,.71-.65,1.43-1.26,2.03-.31,.29-.67,.55-1.08,.73-.43,.18-.8,.3-1.39,.29l.65-.25c-2.41,2.71-4.75,5.55-6.79,8.5-1,1.48-1.97,3.01-2.57,4.54-.15,.37-.26,.75-.3,1.07-.03,.16-.04,.31-.02,.42,0,.11,.04,.19,.03,.16l.04,.07,.02,.04v.02c-.07-.14,0-.03-.02-.05v.02c.07,.11,.12,.22,.17,.33,.08,.22,.13,.43,.14,.63,.04,.39,0,.74-.06,1.04-.12,.61-.32,1.1-.53,1.58-.86,1.86-1.97,3.38-3.09,4.9-1.13,1.51-2.31,2.95-3.52,4.36-2.43,2.83-4.93,5.54-7.55,8.21l-2.49-2.52Z"/><path class="cls-1" d="M95,129.15c2.67-.51,5.43-1.32,7.95-2.43,1.26-.56,2.48-1.21,3.58-1.98,.55-.39,1.06-.81,1.53-1.26,.44-.44,.93-1.02,1.39-1.54l1.39-1.65c.48-.56,1.01-1.17,1.73-1.68,.73-.51,1.54-.78,2.28-.97,.75-.19,1.47-.32,2.19-.45,1.44-.25,2.88-.4,4.18-.75,1.34-.36,2.65-.85,3.91-1.47,2.52-1.24,4.84-2.92,6.98-4.81,.54-.47,1.06-.96,1.58-1.45,.53-.49,.99-1.01,1.62-1.5,1.19-.91,2.45-1.63,3.74-2.33,2.57-1.36,5.23-2.53,7.96-3.5,1.36-.48,2.75-.91,4.15-1.25,1.4-.32,2.85-.59,4.28-.48-1.44-.05-2.86,.27-4.24,.64-1.38,.38-2.74,.86-4.08,1.4-2.67,1.07-5.27,2.33-7.75,3.77-1.23,.72-2.46,1.49-3.53,2.38-.5,.42-.98,1-1.49,1.51-.51,.52-1.02,1.04-1.55,1.54-2.11,2.01-4.44,3.86-7.06,5.27-1.31,.71-2.69,1.29-4.12,1.73-1.48,.46-2.91,.65-4.29,.95-1.37,.3-2.8,.59-3.68,1.26-.88,.68-1.71,1.97-2.63,3.09-.47,.58-.88,1.12-1.44,1.73-.54,.57-1.13,1.09-1.75,1.56-1.23,.94-2.55,1.7-3.9,2.37-2.72,1.31-5.51,2.25-8.46,2.94l-.45-2.62Z"/><path class="cls-1" d="M73.65,126.1c.12-1.54,.08-3.07-.03-4.64-.09-1.56-.26-3.18-.08-4.87,.17-1.69,.85-3.35,1.87-4.7,.5-.68,1.06-1.31,1.65-1.88,.61-.59,1.19-1.09,1.73-1.67,1.1-1.14,2.06-2.4,2.85-3.77,.8-1.37,1.44-2.83,2.13-4.28,1.33-2.93,2.95-5.74,4.89-8.31-1.82,2.66-3.3,5.51-4.48,8.48-.61,1.48-1.19,2.98-1.94,4.42-.75,1.45-1.69,2.81-2.78,4.05-.53,.62-1.15,1.21-1.67,1.77-.53,.57-1.03,1.18-1.45,1.82-.85,1.27-1.36,2.7-1.44,4.18-.1,1.49,.13,3.03,.3,4.61,.18,1.58,.31,3.22,.26,4.85l-1.8-.04Z"/><path class="cls-1" d="M131.02,110.81c3.28-.25,6.52,.13,9.65,.33,3.13,.21,6.3,.07,9.12-1.31,2.97-1.39,6.08-2.27,9.18-3.1,3.11-.81,6.24-1.51,9.38-2.11-3.12,.74-6.21,1.59-9.27,2.54-3.05,.97-6.1,1.99-8.9,3.46-1.46,.79-3.08,1.3-4.71,1.56-1.63,.27-3.27,.31-4.88,.29-3.23-.05-6.36-.27-9.46,.11l-.11-1.77Z"/><path class="cls-1" d="M196.98,143.49c.47-2.91-.65-5.94-1.7-8.93-.53-1.51-1.1-3.04-1.5-4.66-.39-1.61-.66-3.37-.23-5.16,.21-.88,.61-1.74,1.16-2.48,.27-.37,.58-.7,.9-1.01,.33-.31,.64-.57,.98-.84,1.34-1.07,2.83-1.92,4.35-2.61,3.04-1.37,6.21-2.23,8.57-4.37,1.18-1.04,2.15-2.33,2.93-3.72,.73-1.47,1.79-2.86,2.9-4.07,2.25-2.45,4.8-4.56,7.4-6.57,2.62-2,5.32-3.88,8.05-5.7l4.11-2.7,2.06-1.35c.67-.47,1.38-.89,1.97-1.46-.57,.59-1.28,1.03-1.94,1.51l-2.02,1.41-4.04,2.81c-2.68,1.89-5.33,3.83-7.88,5.88-2.54,2.06-5.02,4.22-7.15,6.67-1.07,1.24-1.99,2.5-2.69,3.98-.78,1.48-1.77,2.88-3.03,4.05-1.25,1.17-2.74,2.06-4.25,2.77-1.51,.71-3.04,1.3-4.48,2-1.45,.7-2.8,1.52-4.01,2.53-.6,.51-1.18,1.04-1.58,1.62-.42,.59-.71,1.25-.85,1.95-.3,1.41-.06,2.93,.34,4.41,.41,1.49,1,2.96,1.57,4.46,.57,1.5,1.16,3.02,1.59,4.64,.43,1.6,.7,3.38,.45,5.15l-1.98-.21Z"/><path class="cls-1" d="M205.97,133.32c2.39-.69,4.85-1.04,7.14-1.59,2.3-.55,4.53-1.44,6.72-2.49,2.18-1.03,4.3-2.28,6.56-3.25,1.12-.5,2.26-.95,3.44-1.31,.59-.18,1.18-.33,1.78-.43,.6-.08,1.23-.17,1.8,.03-.58-.16-1.2-.03-1.78,.09-.59,.14-1.16,.33-1.73,.54-1.13,.43-2.23,.96-3.3,1.52-2.16,1.11-4.17,2.48-6.33,3.68-2.14,1.21-4.4,2.3-6.79,3.04-2.39,.74-4.73,1.23-6.97,2.05l-.55-1.9Z"/><path class="cls-1" d="M193.09,179.39c4.42,1.36,9.18,1.89,13.9,2.25,4.74,.33,9.52,.42,14.29,.3,2.38-.12,4.95,0,7.19,1,1.11,.47,2.16,1.01,3.25,1.44,1.07,.45,2.24,.75,3.33,1.25,2.19,.94,4.27,2.06,6.48,2.9,1.1,.41,2.24,.77,3.42,.89,1.17,.13,2.43-.03,3.44-.73-.98,.73-2.26,.93-3.45,.85-1.2-.09-2.37-.41-3.49-.79-2.26-.78-4.39-1.83-6.58-2.69-1.08-.45-2.24-.7-3.37-1.13-1.13-.41-2.21-.92-3.3-1.33-2.16-.87-4.51-.91-6.89-.72-4.8,.28-9.61,.35-14.42,.17-4.8-.21-9.64-.58-14.36-1.85l.57-1.79Z"/><path class="cls-1" d="M332.96,201.25c3.51-2,6.96-4.22,10.23-6.63,3.25-2.43,6.4-5.03,8.84-8.27,.65-.8,1.31-1.6,2.04-2.35,.73-.74,1.58-1.47,2.62-1.85,1.03-.37,2.02-.5,2.98-.83,.96-.3,1.89-.71,2.8-1.16,1.79-.96,3.67-1.91,5.66-2.44,1.97-.52,4.12-.8,6.04-.1-1.94-.62-4.05-.27-5.98,.31-1.96,.6-3.73,1.58-5.52,2.62-.91,.5-1.85,.94-2.83,1.3-.97,.37-2.02,.56-2.91,.92-.89,.36-1.62,1.02-2.29,1.76-.67,.74-1.29,1.54-1.9,2.35-2.36,3.41-5.51,6.23-8.71,8.82-3.24,2.59-6.61,4.95-10.15,7.15l-.93-1.6Z"/><path class="cls-1" d="M347.19,217.37c2.62-.39,5.3-.53,7.94-.37,2.64,.16,5.23,.64,7.75,1.23,2.52,.57,5,1.22,7.57,1.38,2.56,.17,5.17-.24,7.63-1.12-2.41,1.02-5.03,1.6-7.66,1.58-2.63,0-5.21-.51-7.75-.93-2.54-.43-5.08-.75-7.63-.74-2.55,0-5.07,.28-7.59,.81l-.27-1.84Z"/><path class="cls-1" d="M81.52,305.84c-.24-2.82-1.3-5.53-2.93-7.86-1.6-2.35-3.58-4.43-5.31-6.73-.08-.1-.16-.21-.24-.31,0,0,0,0,0-.02-.23-.3-.46-.62-.68-.93h-.02v-.02s-.01-.03-.02-.04c-.22-.31-.43-.62-.64-.94,0-.01-.01-.03-.02-.04-.55-.84-1.05-1.71-1.51-2.6,0-.02-.01-.03-.01-.03-.18-.33-.33-.66-.49-1,0,0,0-.01-.01-.01-.03-.07-.06-.13-.09-.2,0-.01,0-.02,0-.02-.2-.43-.38-.87-.55-1.31-.01-.03-.03-.07-.04-.1,0-.01,0-.02-.01-.02-.49-1.27-.88-2.56-1.19-3.87h0c-.04-.16-.07-.3-.1-.44h0c-.15-.65-.27-1.29-.38-1.93-.04-.23-.07-.44-.1-.67h0c-.02-.07-.03-.13-.03-.19h0c-.03-.16-.05-.31-.06-.46h0c-.02-.08-.03-.16-.03-.23h0s-.02-.07-.02-.1v-.04c-.02-.1-.03-.19-.04-.29-.01-.08-.02-.17-.03-.25v-.06s-.01-.05-.01-.07c-.01-.03-.01-.05-.01-.08-.01-.08-.02-.15-.02-.23,0-.05-.02-.11-.02-.16-.01-.1-.03-.2-.03-.3-.01-.01-.01-.02,0-.03-.01-.04-.02-.07-.02-.11v-.02s-.01-.11-.01-.16c-.02-.14-.04-.28-.05-.42-.01-.05-.01-.1-.01-.15h0c-.04-.33-.07-.66-.1-.98h0c-.01-.05-.01-.08-.01-.12,0-.1-.02-.21-.03-.31h0c-.12-1.3-.23-2.58-.34-3.86,0-.08,0-.16-.02-.24-.02-.28-.04-.56-.07-.84v-.11c-.15-1.36-.23-2.78-.95-3.6-.79-.89-2.09-1.72-3.21-2.61-2.3-1.76-4.49-3.67-6.59-5.64-2.1-1.98-4.15-4-6.11-6.15-1.15-1.27-2.27-2.58-3.32-3.96-.73-.94-1.42-1.92-2.07-2.93-.22-.35-.44-.7-.65-1.06-1.3-2.18-2.35-4.56-2.89-7.08-.33-1.44-.47-2.92-.75-4.15-.27-1.21-.81-2.12-1.68-2.93-.01-.02-.03-.03-.05-.05l-.38-.34-.44-.39c-.28-.26-.53-.51-.78-.78l-.04-.04c-.07-.08-.14-.15-.21-.23-.09-.09-.18-.19-.26-.28-.05-.05-.09-.1-.13-.15-.04-.04-.07-.07-.1-.11-.1-.11-.2-.22-.29-.33-.04-.05-.08-.09-.12-.14-.07-.09-.15-.17-.22-.26-.03-.04-.07-.08-.1-.12l-.03-.03s-.01-.02-.02-.03c-.03-.03-.05-.07-.08-.1-.15-.18-.29-.35-.43-.53-.05-.06-.1-.12-.14-.18-.1-.12-.2-.25-.29-.38-.47-.58-.91-1.17-1.34-1.77h0c-.13-.18-.25-.35-.38-.52-.17-.24-.35-.49-.51-.73-.01-.02-.03-.03-.04-.05-.31-.44-.62-.89-.93-1.34-.04-.07-.09-.12-.14-.19t0-.01c-.1-.16-.21-.33-.32-.49-.87-1.29-1.72-2.6-2.54-3.92-.1-.15-.19-.29-.28-.44-.46-.75-.92-1.5-1.38-2.26-.29-.5-.59-1-.89-1.5-.03-.06-.07-.12-.11-.19l-.15-.27c-.03-.05-.06-.1-.09-.16-.03-.04-.06-.09-.09-.14-.02-.04-.04-.08-.07-.12-.02-.04-.05-.09-.07-.13-.03-.04-.05-.09-.07-.13h0s-.05-.09-.08-.13c-.25-.45-.51-.88-.76-1.33v-.02s-.03-.05-.04-.07c-.14-.23-.27-.47-.4-.7-.01-.02-.02-.03-.03-.05h0c-.05-.11-.11-.19-.16-.29-.02-.03-.04-.06-.06-.1h0c-.19-.35-.47-.87-.83-1.53-2.61-4.86-9.13-17.19-10.22-19.45-.71-1.46-1.89-2.33-2.95-3.33,.38,.14,.77,.28,1.15,.41,1.23,.43,2.73,.49,4.4,.32,.18,.41,.37,.81,.55,1.22,.78,1.72,4.84,9.53,7.8,15.2h0c.04,.09,.08,.15,.12,.23h0c1.01,1.95,1.89,3.63,2.45,4.69l.17,.34h0c.1,.2,.19,.35,.26,.48l.03,.06s.03,.05,.04,.08c.03,.05,.06,.11,.09,.16,.04,.08,.08,.15,.12,.23,.03,.07,.07,.14,.11,.21,.07,.13,.13,.25,.2,.38,.04,.08,.08,.15,.12,.23h0c.08,.16,.16,.29,.23,.44,.04,.06,.08,.12,.11,.19,.05,.1,.1,.19,.16,.29,.03,.07,.07,.13,.1,.2,.07,.12,.13,.23,.19,.35,.04,.07,.08,.13,.11,.2,.06,.11,.12,.21,.18,.32h0c.05,.11,.1,.19,.15,.29,.18,.32,.36,.63,.54,.95,0,0,.01,.01,.01,.02,.07,.15,.15,.29,.24,.44,.14,.25,.29,.51,.43,.76,.05,.08,.09,.16,.14,.24,.65,1.15,1.32,2.29,2.01,3.42,1.02,1.7,2.08,3.38,3.19,5.02,.03,.06,.07,.11,.11,.17,.06,.08,.12,.17,.18,.25,.09,.14,.18,.27,.28,.4,.16,.24,.33,.48,.5,.72v.02c.06,.08,.11,.14,.17,.22,.17,.23,.33,.46,.5,.69,.04,.05,.07,.11,.11,.16t.01,.01c.05,.06,.09,.12,.13,.18,.05,.06,.09,.11,.13,.17l.02,.02h0c.03,.05,.06,.08,.09,.12,.07,.09,.13,.18,.2,.26,.04,.06,.08,.11,.13,.16h0c.09,.13,.18,.24,.27,.35,.03,.04,.07,.08,.1,.12,.13,.17,.27,.33,.41,.5,.03,.03,.06,.07,.08,.1h.01s.02,.03,.03,.04c.06,.07,.12,.14,.18,.2,.06,.08,.13,.15,.2,.23,.36,.4,.74,.79,1.13,1.15,.1,.1,.2,.19,.3,.28l.06,.06c.22,.21,.44,.44,.64,.67,0,.01,.01,.01,.02,.02,.12,.15,.24,.31,.36,.47,.2,.26,.38,.55,.54,.85,.03,.06,.06,.11,.09,.17,.07,.13,.14,.27,.2,.4h.01s.02,.08,.03,.11c.06,.14,.11,.27,.16,.41,.15,.42,.27,.84,.35,1.24,.31,1.54,.38,2.89,.66,4.2,1,5.27,4.41,9.96,8.05,14.22,3.74,4.23,7.79,8.32,12.18,11.89l1.69,1.34c.56,.46,1.15,.92,1.68,1.58,.55,.67,.82,1.53,.93,2.25,.12,.75,.17,1.46,.22,2.17,.04,.78,.09,1.56,.13,2.34h0c.01,.12,.02,.22,.02,.34h0c.06,.93,.11,1.84,.18,2.75,0,.05,0,.09,.01,.14,.01,.18,.02,.35,.04,.53l.03,.48s.01,.08,.01,.12c0,.07,.01,.14,.02,.21,0,.06,0,.11,.01,.17,.01,.19,.03,.38,.05,.57,0,.05,0,.11,.01,.16,.01,.15,.02,.29,.04,.44,0,.05,0,.11,.01,.16h0c0,.06,0,.12,.02,.17,0,.04,0,.08,.01,.12,.02,.31,.05,.61,.09,.92,0,.05,0,.1,.02,.15h0c0,.06,.01,.11,.02,.16,0,.08,.01,.15,.03,.23,.03,.25,.06,.51,.1,.76,.29,1.93,.74,3.82,1.4,5.67,.12,.33,.24,.66,.37,.98,.11,.28,.22,.55,.35,.82,.03,.08,.06,.16,.1,.24,.08,.18,.17,.36,.26,.54,.02,.02,.03,.06,.05,.09,.02,.05,.04,.11,.06,.16v.02c.11,.21,.22,.41,.33,.61h0c.71,1.39,1.54,2.7,2.46,3.97,.09,.12,.18,.25,.27,.37,0,.01,.01,.01,.01,.01,.28,.39,.56,.76,.85,1.14,.03,.04,.06,.08,.08,.12l.02,.02c.16,.2,.32,.4,.47,.6,1.18,1.51,2.38,3,3.42,4.62,1.56,2.4,2.55,5.18,2.7,8Z"/><path class="cls-1" d="M29.14,209.45c4.46,2.83,9.15,5.44,13.93,7.74,4.81,2.26,9.74,4.3,14.98,5.12,1.33,.25,2.65,.52,3.97,.92,1.3,.39,2.67,.93,3.75,1.89,1.06,.97,1.82,2.03,2.79,2.93,.94,.92,1.98,1.75,3.06,2.52,2.21,1.47,4.46,3.06,6.29,5.03,1.81,1.95,3.45,4.27,3.82,6.91-.47-2.62-2.19-4.84-4.04-6.7-1.9-1.89-4.12-3.34-6.42-4.76-1.13-.74-2.22-1.55-3.24-2.47-1.02-.9-1.89-1.98-2.85-2.79-.96-.8-2.17-1.24-3.44-1.57-1.26-.32-2.57-.55-3.88-.75-5.39-.63-10.58-2.54-15.53-4.63-4.97-2.15-9.78-4.59-14.48-7.32l1.28-2.06Z"/><path class="cls-1" d="M45.61,242.29c.57,3.41,.55,3.45,.4,6.9-.14,3.46-.71,6.86-1.41,10.16-.69,3.31-1.47,6.57-1.61,9.93-.16,3.35,.44,6.75,1.65,9.95-1.4-3.12-2.22-6.53-2.26-9.97-.06-3.44,.54-6.82,1.03-10.15,.5-3.33,.85-6.66,.78-9.99-.06-3.33-.5-6.63-1.25-9.9l2.68,3.07Z"/><path class="cls-1" d="M389.25,240.41c1.08,1.25,2.28,2.47,3.49,3.65,1.22,1.18,2.48,2.31,3.79,3.4,2.61,2.17,5.4,4.16,8.43,5.78-3.18-1.34-6.17-3.08-9.02-5.04-1.42-.98-2.81-2.01-4.16-3.09-1.35-1.09-2.65-2.2-3.93-3.41l1.4-1.29Z"/><path class="cls-1" d="M408.17,242.91c2.73,.53,5.53,.94,8.34,1.14,1.4,.1,2.81,.14,4.22,.05,.7-.05,1.41-.13,2.09-.3,.68-.17,1.37-.4,1.9-.89-.48,.54-1.16,.87-1.84,1.11-.69,.24-1.4,.41-2.11,.53-1.43,.25-2.87,.36-4.3,.42-2.88,.11-5.74,.01-8.62-.23l.32-1.85Z"/><path class="cls-1" d="M86.99,140.55c2.19-.31,4.37-.37,6.51-.41,2.14-.05,4.28-.04,6.34-.37,1.03-.16,1.99-.49,2.83-1.09,.87-.58,1.67-1.31,2.51-1.99,.84-.68,1.71-1.37,2.72-1.81,1-.45,2.16-.54,3.18-.21-1.04-.26-2.15-.09-3.08,.41-.94,.48-1.75,1.2-2.53,1.93-.78,.73-1.53,1.51-2.41,2.2-.88,.72-1.98,1.18-3.06,1.42-2.17,.5-4.33,.63-6.46,.84-2.13,.19-4.24,.39-6.29,.83l-.26-1.75Z"/><g><path class="cls-1" d="M228.1,297.28c-1.83-3.62-3.78-7.19-5.94-10.62-1.09-1.71-2.23-3.4-3.53-4.93-.65-.75-1.35-1.5-2.15-1.99-.2-.12-.41-.21-.58-.26-.2-.05-.51-.09-.76-.16-.51-.14-1.02-.33-1.5-.58-1.92-1.02-3.3-2.67-4.6-4.23-1.31-1.57-2.55-3.19-3.94-4.57-.56-.53-1.14-1.05-1.72-1.57-.63-.57-1.28-1.14-1.93-1.71-.22-.18-.42-.35-.64-.55-.01,0-.01-.01-.01-.01-.05-.04-.1-.08-.16-.14h-.02c-.06-.06-.12-.11-.18-.16l-.12-.12h-.03v-.02c-.07-.05-.12-.1-.19-.15h0c-.09-.09-.18-.17-.28-.25-.05-.05-.11-.1-.17-.14-.1-.09-.19-.17-.29-.25-.06-.05-.11-.1-.17-.15-.15-.13-.3-.25-.45-.38-.08-.07-.17-.15-.25-.21h0s-.08-.07-.11-.1c-.11-.09-.23-.2-.34-.28,0,0-.01-.02-.02-.03-.13-.11-.25-.21-.37-.32-.58-.49-1.15-.98-1.72-1.48-.08-.07-.17-.14-.25-.22-2.35-2.03-4.69-4.1-6.97-6.24,0-.01-.01-.02-.01-.02-.09-.07-.17-.15-.26-.24-.54-.5-1.08-1.01-1.61-1.53-1.47-1.44-2.91-2.92-4.26-4.53-.67-.82-1.32-1.66-1.9-2.62-.29-.48-.56-1-.77-1.6-.05-.16-.09-.3-.13-.49-.05-.2-.08-.41-.09-.5v-.02l-.03-.39c-.01-.08-.02-.18-.04-.27v-.02s0-.03,0-.05c-.01-.1-.04-.19-.06-.29h0c-.35-1.43-1.44-2.74-2.78-3.78-.22-.17-.45-.34-.68-.5-.19-.13-.38-.26-.57-.38-.04-.03-.07-.05-.11-.07l-.02-.02h-.02c-.89-.57-1.84-1.06-2.82-1.51-.05-.02-.1-.05-.15-.07-.04-.02-.09-.04-.13-.06-.16-.07-.31-.13-.47-.2-.42-.18-.84-.35-1.26-.51-.08-.03-.15-.06-.23-.09-.31-.11-.63-.23-.94-.33-.08-.04-.16-.06-.24-.09-.14-.05-.28-.1-.42-.14h-.01c-.06-.03-.12-.05-.18-.06-.08-.03-.16-.06-.24-.08-.06-.03-.12-.05-.18-.06-.02,0-.04-.02-.06-.02-.04-.02-.08-.03-.12-.04l-.48-.15c-.06-.02-.12-.04-.19-.06-.15-.05-.31-.09-.47-.14l-.21-.06c-.19-.06-.39-.11-.59-.17-.09-.03-.19-.05-.29-.08-.27-.07-.54-.14-.81-.22-.1-.02-.2-.05-.3-.07-.15-.04-.29-.08-.44-.11-.05-.02-.09-.03-.14-.03-.08-.03-.15-.05-.23-.06-1.1-.27-2.21-.51-3.32-.74-.85-.17-1.7-.33-2.55-.48l-.3-.06c-2.56-.44-5.14-.8-7.73-1.1-.1-.01-.19-.02-.29-.03-.08-.01-.15-.02-.23-.03-.24-.03-.48-.05-.72-.08-.06-.01-.13-.01-.19-.02-.16,0-.32-.03-.48-.06-.78-.07-1.56-.19-2.35-.33h-.01c-3.15-.58-6.29-1.63-9.16-3.16h-.01s-.06-.03-.1-.05c-.73-.38-1.44-.79-2.13-1.24-2.99-1.86-5.67-4.19-8.02-6.74-.11-.12-.23-.24-.33-.37-.07-.07-.13-.14-.19-.21-.9-.99-1.74-2.01-2.56-3.06-.04-.06-.1-.13-.15-.2-.19-.25-.37-.49-.57-.75h0s-.06-.08-.09-.12c-.53-.72-1.05-1.45-1.55-2.19-.05-.06-.09-.13-.14-.19-.68-1-1.34-2.02-1.98-3.04-.3-.47-.59-.94-.88-1.41-.05-.09-.1-.17-.15-.26-1.54-2.53-2.97-5.09-4.45-7.46t-.01-.02c-.26-.41-.52-.82-.78-1.22-.52-.79-1.06-1.53-1.6-2.13-.26-.3-.53-.56-.76-.73-.2-.17-.41-.27-.85-.51-1.58-.83-3.42-1.57-5.28-2.31-.75-.3-1.5-.59-2.26-.89-.32-.12-.63-.24-.95-.37-.7-.27-1.4-.55-2.11-.85-.11-.04-.21-.08-.32-.13-.25-.1-.51-.21-.76-.32h-.01c-.07-.03-.13-.05-.2-.09-.03-.01-.06-.02-.09-.04-.01,0-.02,0-.03-.01h-.01s-.03-.01-.05-.02c-.02-.01-.05-.02-.07-.03-.04-.02-.08-.03-.12-.05-.05-.02-.1-.05-.15-.07h-.02c-.11-.05-.22-.1-.33-.15-.02-.01-.03-.02-.05-.03-.03,0-.05-.02-.08-.03l-.21-.09s-.03-.01-.04-.02c-.03-.01-.06-.03-.09-.04-.08-.04-.16-.07-.23-.11l-.21-.09c-.12-.05-.24-.11-.35-.16-.93-.43-1.86-.89-2.78-1.39-1.93-1.05-3.87-2.26-5.69-3.99-.9-.86-1.78-1.87-2.48-3.08-.32-.55-.6-1.14-.84-1.76-.03-.06-.05-.12-.07-.18-.04-.12-.08-.23-.12-.35-.07-.23-.13-.46-.2-.72l-.12-.6-.07-.37,6.49-.81,.05,.37,.02,.14s.02,.08,.03,.13c.02,.08,.04,.18,.07,.26,.05,.15,.11,.31,.18,.47,.05,.12,.11,.24,.17,.36,.29,.56,.74,1.13,1.29,1.7,1.1,1.13,2.59,2.17,4.19,3.11,.84,.49,1.71,.96,2.6,1.4,.26,.14,.53,.26,.79,.39,2.33,1.13,4.8,2.16,7.3,3.25,1.89,.83,3.8,1.65,5.79,2.78,.45,.26,1.13,.65,1.71,1.15,.55,.48,.99,.96,1.39,1.44,.79,.95,1.4,1.88,1.98,2.8,.58,.95,1.12,1.89,1.64,2.83,.58,1.04,1.14,2.06,1.69,3.08h0c.07,.14,.14,.26,.22,.39,.34,.64,.69,1.28,1.04,1.91,.07,.15,.15,.29,.23,.43t.01,.01s.02,.03,.03,.05c.03,.05,.05,.11,.09,.16h0c.31,.57,.62,1.11,.94,1.66,.02,0,.03,.03,.03,.05,.03,.05,.05,.08,.08,.13,.11,.19,.22,.37,.34,.56,.15,.28,.31,.55,.48,.82,.11,.19,.23,.39,.36,.58h0c.06,.14,.14,.26,.22,.39,.03,.05,.06,.1,.09,.14,.09,.16,.19,.31,.29,.46,.03,.05,.06,.1,.1,.15,.02,.04,.04,.08,.07,.12,.01,.01,.01,.02,.02,.03,0,.01,.01,.02,.02,.03,.05,.08,.1,.15,.15,.23,.03,.05,.06,.09,.08,.14,.06,.08,.11,.17,.17,.25,.02,.03,.03,.05,.05,.08h0l.04,.05s.06,.1,.09,.14c.07,.11,.14,.21,.22,.31h0c.04,.08,.09,.15,.13,.22h0s.06,.08,.09,.11c0,0-.01,0,0,.01,.02,.04,.05,.09,.08,.13,.1,.15,.2,.29,.31,.44,.29,.42,.59,.84,.9,1.25,.1,.15,.21,.29,.32,.43,0,0,0,0,.01,0h0c.53,.72,1.08,1.41,1.65,2.08,0,.01,.01,.01,.01,.02,.13,.16,.26,.31,.39,.46,.08,.09,.15,.18,.23,.26,.01,.01,.01,.02,.02,.03,.17,.18,.33,.36,.49,.54,2.35,2.58,5.02,4.83,7.99,6.53,3.3,1.89,6.91,3.05,10.77,3.53,4.04,.58,8.08,1.29,12.08,2.24l1.71,.42h.01c.16,.05,.32,.09,.48,.13,.36,.1,.72,.19,1.08,.29,.11,.03,.22,.06,.33,.1,.87,.24,1.74,.5,2.6,.78,.07,.02,.13,.04,.2,.06,.42,.14,.83,.28,1.24,.42,.06,.02,.12,.04,.18,.07,.18,.06,.36,.12,.54,.2,.08,.02,.16,.05,.24,.08,.21,.08,.42,.16,.62,.24,.06,.02,.12,.04,.18,.07,.25,.1,.5,.2,.75,.3,.08,.03,.16,.06,.24,.1,.48,.2,.96,.41,1.44,.63l.18,.09c.2,.09,.39,.18,.58,.28,1.65,.82,3.27,1.78,4.75,3.01,.85,.72,1.65,1.54,2.31,2.52,.66,.97,1.16,2.13,1.32,3.35,.02,.15,.03,.31,.04,.46l.02,.36c0,.16,.02,.19,.03,.23,0,.05,.04,.16,.06,.24,.11,.36,.29,.76,.51,1.15,.44,.8,1.01,1.6,1.61,2.37,1.21,1.56,2.56,3.04,3.95,4.5,1.67,1.74,3.4,3.43,5.16,5.1,.32,.31,.63,.61,.96,.9t.01,.01c.87,.83,1.74,1.64,2.62,2.45l.03,.03c.33,.31,.66,.61,.99,.91h.01c.08,.09,.17,.17,.25,.25,.3,.27,.59,.54,.88,.8l.15,.15h.01c.07,.06,.14,.12,.2,.18,.01,.01,.02,.03,.02,.03,.14,.12,.28,.24,.41,.37,.08,.06,.16,.13,.23,.21,.12,.1,.23,.2,.34,.3,.05,.05,.1,.1,.15,.14,.18,.17,.37,.34,.55,.51,.03,.02,.07,.05,.1,.09,.02,.01,.04,.03,.06,.05,.06,.06,.13,.12,.2,.19,.13,.11,.24,.22,.37,.35h.01s.05,.04,.07,.06c.04,.03,.07,.07,.11,.11h.01c.32,.3,.65,.6,.97,.91,.15,.13,.29,.27,.44,.41,.19,.18,.39,.36,.58,.55,.05,.04,.09,.09,.14,.15,0,0,.02,.01,.03,.02l.48,.45c.39,.38,.78,.76,1.16,1.15,1.45,1.54,2.63,3.2,3.88,4.8,1.23,1.58,2.5,3.18,4.18,4.14,.42,.23,.86,.42,1.32,.55,.24,.08,.43,.1,.72,.18,.32,.09,.56,.23,.8,.38,.92,.61,1.6,1.41,2.25,2.21,1.28,1.62,2.37,3.35,3.4,5.1,2.06,3.52,3.89,7.15,5.6,10.83Z"/><path class="cls-1" d="M114.91,197.12c3.24,1.94,6.58,3.82,9.94,5.56,1.69,.86,3.39,1.69,5.1,2.44,1.71,.73,3.47,1.43,5.12,1.77,.41,.08,.81,.13,1.11,.11,.15,0,.27-.03,.33-.04,.03-.01,.03-.01,.03,0,0,0-.02,0-.02,.02l.18-.16c.39-.33,.75-.47,1.08-.58,.34-.11,.65-.15,.96-.18,.6-.04,1.15,0,1.68,.07,2.09,.31,3.94,.96,5.77,1.65,3.64,1.42,7.11,3.12,10.53,4.96l.37,.2,.06,.38c.02,.11,.16,.42,.31,.61,.16,.21,.37,.39,.6,.55,.48,.31,1.09,.49,1.73,.57,.65,.08,1.32,.06,2-.02,.34-.04,.68-.09,1.02-.16,.23-.04,.33-.06,.58-.08,.23-.02,.43-.02,.63-.01,1.63,.11,3.02,.76,4.34,1.45,1.31,.71,2.54,1.53,3.73,2.4,2.37,1.74,4.57,3.68,6.7,5.69,1.06,1.01,2.1,2.03,3.11,3.09,.99,1.07,2.03,2.1,2.86,3.3-.88-1.16-1.97-2.15-3-3.16-1.05-1-2.13-1.98-3.23-2.94-2.2-1.9-4.48-3.71-6.89-5.32-1.2-.8-2.44-1.54-3.72-2.16-1.27-.6-2.63-1.12-3.9-1.14-.15,0-.32,0-.44,.03-.11,0-.36,.06-.48,.09-.36,.09-.73,.16-1.1,.22-.74,.12-1.51,.18-2.31,.13-.79-.06-1.63-.24-2.4-.69-.38-.22-.75-.51-1.05-.87-.3-.38-.53-.72-.69-1.31l.43,.58c-3.42-1.64-6.94-3.17-10.49-4.37-1.77-.58-3.59-1.11-5.3-1.27-.42-.04-.83-.04-1.17,0-.17,.02-.32,.05-.43,.1-.11,.04-.18,.1-.15,.07l-.06,.06-.03,.03h-.02c.12-.1,.02,0,.04-.03h-.01c-.09,.1-.19,.19-.29,.27-.19,.14-.4,.25-.59,.33-.38,.15-.74,.21-1.06,.24-.64,.06-1.19,0-1.73-.07-2.11-.33-3.96-1-5.81-1.69-1.84-.7-3.63-1.47-5.39-2.28-3.54-1.62-6.98-3.35-10.42-5.21l1.81-3.22Z"/><path class="cls-1" d="M149.37,230.44c1.28,2.54,2.89,5.07,4.73,7.28,.93,1.11,1.93,2.14,3.02,3.02,.55,.44,1.12,.84,1.71,1.17,.57,.32,1.29,.64,1.95,.95l2.06,.92c.7,.32,1.47,.67,2.19,1.26,.72,.59,1.23,1.32,1.63,2.01,.41,.69,.75,1.39,1.08,2.07,.67,1.38,1.23,2.78,1.96,3.98,.74,1.24,1.62,2.41,2.61,3.5,1.97,2.18,4.33,4.02,6.84,5.62,.63,.4,1.27,.79,1.91,1.16,.64,.39,1.31,.71,1.98,1.19,1.26,.93,2.35,1.99,3.41,3.08,2.1,2.19,4.04,4.52,5.81,6.98,.88,1.23,1.71,2.49,2.45,3.81,.73,1.32,1.41,2.69,1.72,4.16-.36-1.46-1.1-2.79-1.87-4.07-.79-1.28-1.66-2.51-2.58-3.69-1.84-2.37-3.86-4.62-6.01-6.69-1.08-1.03-2.2-2.04-3.41-2.86-.57-.38-1.28-.7-1.94-1.07-.67-.36-1.33-.72-1.99-1.11-2.63-1.54-5.15-3.34-7.32-5.57-1.08-1.11-2.07-2.32-2.93-3.63-.88-1.35-1.49-2.73-2.19-4.03-.7-1.29-1.4-2.64-2.33-3.34-.94-.69-2.48-1.15-3.86-1.75-.72-.3-1.38-.56-2.15-.95-.73-.38-1.42-.82-2.07-1.3-1.3-.96-2.44-2.07-3.5-3.23-2.1-2.36-3.85-4.88-5.39-7.65l2.5-1.21Z"/><path class="cls-1" d="M146.28,208.13c1.58-.32,3.1-.81,4.65-1.36,1.54-.54,3.12-1.18,4.87-1.48,1.74-.31,3.61-.11,5.26,.52,.83,.3,1.62,.69,2.37,1.11,.77,.44,1.44,.88,2.18,1.26,1.46,.78,3,1.37,4.6,1.78,1.6,.41,3.26,.63,4.91,.9,3.32,.49,6.61,1.31,9.75,2.52-3.19-1.06-6.48-1.72-9.8-2.06-1.66-.18-3.33-.34-5-.68-1.67-.34-3.31-.89-4.87-1.62-.78-.36-1.54-.8-2.25-1.17-.73-.37-1.48-.69-2.24-.93-1.53-.49-3.1-.59-4.61-.24-1.52,.33-3,1-4.54,1.63-1.53,.64-3.14,1.23-4.79,1.65l-.48-1.82Z"/><path class="cls-1" d="M178.16,261.32c1.19,3.22,1.75,6.58,2.45,9.78,.69,3.2,1.74,6.34,3.94,8.78,2.25,2.58,4.03,5.45,5.76,8.32,1.71,2.89,3.31,5.83,4.82,8.81-1.65-2.91-3.38-5.78-5.22-8.57-1.85-2.78-3.76-5.55-6.04-7.94-1.21-1.24-2.19-2.72-2.92-4.28-.74-1.56-1.26-3.2-1.7-4.82-.87-3.25-1.56-6.46-2.83-9.46l1.75-.62Z"/><path class="cls-1" d="M135.62,225.69c.94,2.11,1.63,4.28,2.29,6.41,.67,2.13,1.28,4.29,2.2,6.25,.46,.99,1.06,1.85,1.91,2.53,.83,.7,1.79,1.3,2.72,1.94,.93,.64,1.87,1.32,2.6,2.22,.74,.88,1.17,2.02,1.12,3.13-.04-1.12-.53-2.19-1.3-2.98-.76-.81-1.71-1.41-2.67-1.98-.96-.57-1.96-1.1-2.9-1.79-.98-.67-1.75-1.65-2.31-2.66-1.13-2.03-1.88-4.16-2.7-6.24-.81-2.09-1.62-4.14-2.65-6.07l1.68-.77Z"/></g><g><path class="cls-1" d="M310.07,195.11h0s0-.01,0,0Z"/><path class="cls-1" d="M75.2,183c-.14,.03-.28,.06-.43,.08-.3,.06-.6,.12-.9,.17-.13,.03-.26,.05-.39,.07-.03,0-.07,.01-.1,.01-1.97,.32-4.02,.49-6.06,.52h-.16c2.94-.25,5.53-.37,8.04-.85Z"/><path class="cls-1" d="M82.88,179.87s-.05,.03-.07,.05h0s.05-.03,.07-.05Z"/><path class="cls-1" d="M435.88,255.76l-.43,.6-.13,.19c-2.21-1.27-4.47-2.48-6.78-3.6-.52-.25-1.03-.5-1.55-.74-.51-.25-1.03-.49-1.56-.72l-.93-.42h-.01c-.07-.03-.15-.07-.23-.1h0c-.1-.05-.2-.09-.3-.14-.56-.24-1.12-.48-1.68-.71-.29-.12-.57-.24-.86-.36l-.21-.09c-.7-.29-1.41-.57-2.11-.85h0c-.06-.02-.11-.04-.16-.06-1.33-.52-2.66-1-4.01-1.46h-.01c-.09-.03-.17-.06-.26-.09-2.01-.69-4.05-1.3-6.1-1.84-2.56-.68-5.14-1.26-7.75-1.69-.09-.02-.17-.04-.27-.05h-.01c-.14-.02-.28-.05-.42-.06,0,0,0-.01,0,0-.54-.1-1.1-.18-1.65-.25h-.01c-.13-.02-.26-.04-.4-.05-.29-.04-.58-.08-.88-.11-.06-.01-.13-.02-.19-.02-.01-.01-.03-.01-.04-.01-.1-.01-.21-.02-.31-.03-.24-.03-.49-.06-.73-.08-.07-.01-.15-.01-.22-.02-.28-.03-.56-.05-.84-.07-.12-.01-.23-.02-.35-.03-.05,0-.11-.01-.16-.01-.13-.01-.25-.02-.38-.02-.08,0-.16-.02-.24-.02-.09-.01-.18-.02-.27-.02-.14-.01-.27-.02-.4-.02-.14,0-.27-.02-.41-.02h-.01c-.1-.01-.21-.02-.31-.02-.29-.01-.58-.02-.87-.03-.16,0-.32-.01-.48-.01-.15,0-.3-.01-.45-.01h-.4c-.19,0-.38,0-.56,.01-.19-.01-.38,0-.57,0-.03,0-.05,0-.07,.01-.59,0-1.18,.03-1.76,.06-2.49,.18-5.16,.18-7.72-.15-2.38-.28-4.72-.85-6.96-1.66-.21-.07-.43-.14-.64-.23-.59-.22-1.17-.46-1.74-.71-.55-.25-1.09-.5-1.62-.77h-.01c-.09-.05-.17-.09-.26-.14-.07-.04-.14-.07-.21-.12h0c-.11-.05-.2-.1-.31-.16-.06-.03-.12-.07-.19-.1-.63-.35-1.26-.72-1.87-1.11-.05-.04-.11-.07-.16-.11-.03-.01-.05-.03-.08-.05-.12-.08-.23-.15-.35-.23-.11-.07-.23-.15-.34-.23-.11-.07-.23-.15-.34-.24-.31-.2-.62-.42-.92-.64-1.35-.98-2.62-2.03-3.85-3.13-.23-.19-.46-.4-.69-.62-1.78-1.62-3.46-3.32-5.1-5.01-1.69-1.74-3.36-3.47-5.09-5.01-1.73-1.54-3.55-2.88-5.47-3.57-.25-.09-.44-.15-.73-.23l-.93-.27c-.62-.19-1.23-.39-1.83-.61-1.2-.41-2.37-.88-3.53-1.35-2.32-.97-4.58-2.01-6.8-3.11-4.45-2.21-8.77-4.62-12.97-7.28-2.09-1.33-4.16-2.72-6.17-4.28-1.01-.79-2-1.6-2.99-2.63-.24-.26-.49-.53-.74-.85-.12-.17-.25-.33-.37-.54-.07-.11-.12-.17-.21-.34l-.11-.23-.09-.18-.33-.85c-.1-.24-.21-.49-.32-.73-.82-1.71-1.89-3.42-3.07-5.07-.04-.07-.09-.13-.14-.2l-.39-.54c-.65-.89-1.33-1.76-2.03-2.62-.05-.07-.11-.13-.16-.2-.52-.63-1.05-1.26-1.58-1.87-.03-.03-.05-.05-.07-.08-.06-.07-.12-.14-.18-.2-.04-.05-.08-.1-.12-.14-.11-.12-.21-.24-.32-.36-3.14-3.5-6.56-6.77-10.22-9.71-.02-.02-.04-.03-.06-.05-.05-.04-.11-.08-.16-.12-.54-.44-1.09-.86-1.64-1.27-.07-.06-.13-.1-.2-.15-.38-.29-.77-.57-1.16-.84-.05-.04-.09-.07-.13-.09-.41-.3-.81-.58-1.23-.85h0s-.09-.06-.13-.08c-.43-.3-.87-.57-1.31-.85-.07-.04-.13-.08-.2-.11-.23-.15-.46-.28-.69-.41-.05-.03-.09-.06-.14-.08-.26-.16-.53-.3-.79-.45-.08-.04-.15-.08-.22-.12-1.24-.67-2.51-1.26-3.82-1.77-2.56-1.02-5.25-1.69-8.01-2.06-1.72-.23-3.46-.35-5.22-.35h-.01c-.08,0-.17,0-.25,0-4.7-.02-9.49,.6-14.27,1.47-4.79,.88-9.57,2.01-14.34,3.24-2.39,.62-4.78,1.26-7.16,1.91l-7.22,2.01c-2.49,.66-5.04,1.25-7.76,1.54-2.7,.31-5.66,.15-8.29-.42-2.63-.55-4.94-1.27-7.27-1.84-2.15-.54-4.3-1.01-6.49-1.4l-.51-.09c-1.72-.31-3.45-.56-5.2-.78-3.03-.39-6.11-.67-9.22-.96-2.44-.21-4.87-.42-7.22-.51-2.34-.08-4.69-.05-5.93,.54-.65,.27-1.56,.9-2.65,1.63-1.07,.73-2.24,1.46-3.42,2.11-.02,.01-.05,.03-.07,.04-1.14,.63-2.34,1.23-3.49,1.76-.32,.15-.63,.29-.95,.42-.01,.01-.03,.01-.04,.02-.01,.01-.03,.01-.04,.02-.2,.07-.39,.16-.59,.23-.04,.02-.07,.03-.11,.04-.28,.11-.55,.21-.83,.31-.07,.03-.15,.06-.23,.08-.36,.13-.73,.25-1.1,.37-.13,.04-.27,.08-.4,.12-5.07,1.51-10.07,2.09-14.99,2.53-5.06,.42-10.05,.61-15,.8l-7.41,.28-3.76,.15c-1.54,.04-2.95-.11-4.29-.31-2.68-.4-5.1-1.02-7.4-1.47-1.48-.29-2.91-.51-4.2-.56-.71-.03-1.37-.01-1.98,.08-.26,.03-.51,.08-.76,.13-.15,.04-.29,.07-.44,.12-.18,.04-.37,.1-.55,.16-.08,.03-.16,.05-.23,.08-.04,.01-.08,.03-.11,.04-.04,.01-.08,.03-.12,.04-.05,.02-.09,.04-.14,.06-.02,.01-.05,.02-.07,.03-.1,.03-.19,.08-.28,.12-.03,.01-.05,.02-.07,.03-.01,0-.02,.01-.03,.01t-.02,0c-.48,.22-.96,.46-1.46,.75-.03-.06-.05-.12-.07-.18-.04-.12-.08-.23-.12-.35-.14,.07-.28,.16-.42,.26-.13,.07-.26,.15-.39,.24-4.74,3.07-8.83,3.49-14.34,3.51-27.38,.09-19.08-5.73-33.77-6.36-.65,.17-1.33,.28-2.03,.33-.35,.02-.68,.02-1.07,.01l-.58-.04-.36-.05,.03-.17,.18-1.19,.76-4.82,.35,.06h.14c.1,.02,.26,.03,.38,.02,.28-.01,.56-.04,.86-.1,.59-.12,1.23-.38,1.9-.74,.23-.12,.46-.26,.69-.4,.9,0,1.72,.13,2.42,.42,1.4,.59,2.81,1.19,4.23,1.78,4.19,1.75,8.45,3.44,12.8,4.64,6.65,1.84,17.68,1.64,23.57-2.09,1.11-.7,2.39-1.45,3.81-2.05,1.41-.6,2.96-1.05,4.52-1.25,3.23-.4,5.99,.11,8.52,.6,2.53,.51,4.88,1.12,7.07,1.45,1.1,.18,2.14,.28,3.09,.26l3.66-.13,7.43-.21c1.71-.05,3.42-.09,5.12-.15,.78-.02,1.55-.05,2.32-.08,2.28-.09,4.56-.21,6.81-.37,.14-.01,.29-.02,.43-.03,.49-.04,.98-.08,1.47-.13h.07c.33-.02,.66-.05,.99-.09,.03,0,.06,0,.09-.01,.65-.06,1.29-.12,1.93-.2,3.25-.37,6.43-.91,9.39-1.8,1.08-.32,2.12-.7,3.09-1.14,1.11-.5,2.11-.99,3.13-1.54,1.02-.55,1.97-1.13,2.97-1.79,.69-.44,1.43-.99,2.38-1.5,0-.01,.01-.01,.01-.01,.01-.01,.02-.01,.03-.02,.41-.24,.85-.46,1.34-.67,1.64-.69,3.3-.91,4.71-.99,1.43-.08,2.74-.04,4.04,.02,.29,.01,.59,.03,.88,.05,2.27,.12,4.47,.33,6.67,.55,2.48,.25,4.93,.5,7.43,.81s5,.68,7.49,1.14c2.49,.46,4.97,1.02,7.41,1.66,2.44,.62,4.82,1.37,7,1.84,2.18,.49,4.21,.61,6.45,.39,2.21-.21,4.53-.71,6.85-1.3l7.18-1.93c2.42-.64,4.84-1.27,7.28-1.87,4.87-1.19,9.78-2.3,14.77-3.16,5-.84,10.1-1.46,15.31-1.38,5.18,.06,10.51,.96,15.36,2.96,1.76,.72,3.45,1.56,5.07,2.49,.18,.11,.36,.21,.54,.32,.02,.01,.05,.03,.07,.04,.16,.09,.31,.18,.46,.27,0,0,.01,.01,.02,.01,1.56,.95,3.04,1.99,4.48,3.08,.05,.03,.08,.06,.13,.11h.01c.46,.33,.91,.68,1.35,1.05,.04,.02,.08,.05,.12,.09,.26,.2,.52,.41,.77,.62,.01,.01,.03,.02,.04,.03,.04,.03,.07,.06,.11,.09,3.81,3.16,7.32,6.61,10.57,10.31l.02,.02c.08,.09,.16,.19,.24,.28h0c.39,.45,.76,.89,1.13,1.34l.18,.21c.13,.15,.26,.31,.38,.47,.04,.04,.08,.09,.11,.14,.14,.16,.27,.32,.39,.48,.06,.07,.11,.13,.16,.2,.09,.11,.18,.22,.26,.34,.04,.04,.08,.09,.11,.14,.24,.3,.47,.6,.71,.91,.03,.05,.07,.1,.11,.15l.15,.21c.06,.07,.12,.15,.17,.23,.19,.25,.37,.5,.55,.75,.24,.33,.47,.66,.7,1,.07,.1,.14,.2,.21,.31,.77,1.13,1.5,2.29,2.17,3.53,.03,.07,.06,.12,.08,.16,.22,.39,.43,.81,.62,1.22h.01s.03,.07,.04,.1c0,.03,0,.05,.03,.06,.04,.08,.07,.15,.11,.23,.13,.31,.27,.62,.4,.94l.31,.85s.02,.03,.02,.03l.02,.02s.09,.13,.15,.21c.12,.16,.27,.34,.44,.52,.68,.74,1.56,1.5,2.46,2.22,1.17,.93,2.4,1.84,3.67,2.7,0,.01,.01,.01,.01,.01h.01c.69,.48,1.39,.94,2.09,1.4,.88,.57,1.76,1.13,2.66,1.68h.02c3.19,1.98,6.45,3.83,9.79,5.54,2.14,1.1,4.31,2.14,6.5,3.08,1.1,.47,2.2,.92,3.31,1.32,.55,.2,1.1,.39,1.66,.57l.83,.26c.3,.09,.68,.21,1.01,.33,1.48,.56,2.77,1.32,3.95,2.18h.01c.68,.48,1.32,.99,1.93,1.51,.28,.24,.55,.48,.81,.72,1.88,1.71,3.56,3.52,5.23,5.27,1.88,2,3.77,3.95,5.76,5.73,.22,.21,.45,.41,.67,.61,.83,.72,1.68,1.41,2.55,2.05,.08,.07,.15,.13,.23,.18,.43,.32,.86,.62,1.3,.92,.11,.07,.21,.14,.32,.21,.06,.05,.12,.09,.18,.12,.57,.38,1.16,.74,1.76,1.08,.06,.03,.12,.07,.19,.1,3.2,1.79,6.7,2.99,10.36,3.48,1.29,.17,2.57,.27,3.89,.3h.01c.16,.01,.32,.01,.49,.01,.88,.01,1.78-.02,2.7-.07,.78-.02,1.55-.03,2.32-.02,.21-.01,.42,0,.63,.01,.24,0,.47,0,.71,.01,.13,0,.27,.01,.41,.02,.44,.01,.89,.03,1.33,.06,.08,0,.15,.01,.23,.02,.27,.01,.54,.03,.81,.05,.12,0,.24,.02,.35,.03,.28,.02,.56,.04,.84,.07,.4,.04,.79,.08,1.18,.13,.08,.01,.15,.02,.22,.03,.63,.07,1.26,.16,1.89,.25,.07,.01,.15,.02,.22,.03h.01s.05,.01,.09,.02c.11,0,.23,.03,.35,.05,.68,.11,1.35,.23,2.03,.36,.13,.02,.27,.05,.4,.08,2.83,.54,5.6,1.26,8.33,2.11,.83,.26,1.65,.53,2.46,.82h.02s.06,.02,.09,.04c.07,.02,.13,.04,.19,.07,.65,.22,1.3,.45,1.94,.7,.18,.06,.35,.13,.53,.19h.01l.06,.03s.04,.01,.06,.02h.01c.36,.14,.71,.28,1.06,.43h.02c.36,.14,.73,.28,1.09,.43,.07,.03,.13,.06,.2,.09,.14,.05,.27,.11,.41,.17h.01c.43,.18,.86,.36,1.29,.55,.07,.03,.15,.06,.22,.1,.61,.25,1.21,.53,1.81,.81,.07,.02,.14,.06,.21,.09,.04,.02,.07,.03,.1,.06h.01c.66,.29,1.3,.6,1.95,.92,.1,.05,.21,.1,.32,.16,4.33,2.14,8.48,4.6,12.41,7.37Z"/></g><path class="cls-1" d="M75.2,183c-.14,.03-.28,.06-.43,.08-.3,.06-.6,.12-.9,.17-.13,.03-.26,.05-.39,.07-.03,0-.07,.01-.1,.01-1.9,.24-3.89,.34-6.06,.52h-.16c2.94-.25,5.53-.37,8.04-.85Z"/><path class="cls-1" d="M435.46,256.37l-.14,.18c-2.21-1.27-4.47-2.48-6.78-3.6-.52-.25-1.03-.5-1.55-.74-.51-.25-1.03-.49-1.56-.72l-.93-.42h-.01c-.07-.03-.15-.07-.23-.1h0c-.1-.05-.2-.09-.3-.14-.56-.24-1.12-.48-1.68-.71-.29-.12-.57-.24-.86-.36l-.21-.09c-.7-.29-1.41-.57-2.11-.85h0c-.06-.02-.11-.04-.16-.06-1.33-.52-2.66-1-4.01-1.46h-.01c-.09-.03-.17-.06-.26-.09-2.01-.69-4.05-1.3-6.1-1.84-2.56-.68-5.14-1.26-7.75-1.69-.09-.02-.17-.04-.27-.05h-.01c-.14-.02-.28-.05-.42-.06,0,0,0-.01,0,0-.54-.1-1.1-.18-1.65-.25h-.01c-.13-.02-.26-.04-.4-.05-.29-.04-.58-.08-.88-.11-.06-.01-.13-.02-.19-.02-.01-.01-.03-.01-.04-.01-.1-.01-.21-.02-.31-.03-.24-.03-.49-.06-.73-.08-.07-.01-.15-.01-.22-.02-.28-.03-.56-.05-.84-.07-.12-.01-.23-.02-.35-.03-.05,0-.11-.01-.16-.01-.13-.01-.25-.02-.38-.02-.08,0-.16-.02-.24-.02-.09-.01-.18-.02-.27-.02-.14-.01-.27-.02-.4-.02-.14,0-.27-.02-.41-.02h-.01c-.1-.01-.21-.02-.31-.02-.29-.01-.58-.02-.87-.03-.16,0-.32-.01-.48-.01-.15,0-.3-.01-.45-.01h-.4c-.19,0-.38,0-.56,.01-.19-.01-.38,0-.57,0-.03,0-.05,0-.07,.01-.59,0-1.18,.03-1.76,.06-2.49,.18-5.16,.18-7.72-.15-2.38-.28-4.72-.85-6.96-1.66-.21-.07-.43-.14-.64-.23-.59-.22-1.17-.46-1.74-.71-.55-.25-1.09-.5-1.62-.77h-.01c-.09-.05-.17-.09-.26-.14-.07-.04-.14-.07-.21-.12h0c-.11-.05-.2-.1-.31-.16-.06-.03-.12-.07-.19-.1-.63-.35-1.26-.72-1.87-1.11-.05-.04-.11-.07-.16-.11-.03-.01-.05-.03-.08-.05-.12-.08-.23-.15-.35-.23-.11-.07-.23-.15-.34-.23-.11-.07-.23-.15-.34-.24-.31-.2-.62-.42-.92-.64-1.35-.98-2.62-2.03-3.85-3.13-.23-.19-.46-.4-.69-.62-1.78-1.62-3.46-3.32-5.1-5.01-1.69-1.74-3.36-3.47-5.09-5.01-1.73-1.54-3.55-2.88-5.47-3.57-.25-.09-.44-.15-.73-.23l-.93-.27c-.62-.19-1.23-.39-1.83-.61-1.2-.41-2.37-.88-3.53-1.35-2.32-.97-4.58-2.01-6.8-3.11-4.45-2.21-8.77-4.62-12.97-7.28-2.09-1.33-4.16-2.72-6.17-4.28-1.01-.79-2-1.6-2.99-2.63-.24-.26-.49-.53-.74-.85-.12-.17-.25-.33-.37-.54-.07-.11-.12-.17-.21-.34l-.11-.23-.09-.18-.33-.85c-.1-.24-.21-.49-.32-.73-.82-1.71-1.89-3.42-3.07-5.07-.04-.07-.09-.13-.14-.2l-.39-.54c-.65-.89-1.33-1.76-2.03-2.62-.05-.07-.11-.13-.16-.2-.52-.63-1.05-1.26-1.58-1.87-.03-.03-.05-.05-.07-.08-.06-.07-.12-.14-.18-.2-.04-.05-.08-.1-.12-.14-.11-.12-.21-.24-.32-.36-3.14-3.5-6.56-6.77-10.22-9.71-.02-.02-.04-.03-.06-.05-.05-.04-.11-.08-.16-.12-.54-.44-1.09-.86-1.64-1.27-.07-.06-.13-.1-.2-.15-.38-.29-.77-.57-1.16-.84-.05-.04-.09-.07-.13-.09-.41-.3-.81-.58-1.23-.85h0s-.09-.06-.13-.08c-.43-.3-.87-.57-1.31-.85-.07-.04-.13-.08-.2-.11-.23-.15-.46-.28-.69-.41-.05-.03-.09-.06-.14-.08-.26-.16-.53-.3-.79-.45-.08-.04-.15-.08-.22-.12-1.24-.67-2.51-1.26-3.82-1.77-2.56-1.02-5.25-1.69-8.01-2.06-1.72-.23-3.46-.35-5.22-.35h-.01c-.08,0-.17,0-.25,0-4.7-.02-9.49,.6-14.27,1.47-4.79,.88-9.57,2.01-14.34,3.24-2.39,.62-4.78,1.26-7.16,1.91l-7.22,2.01c-2.49,.66-5.04,1.25-7.76,1.54-2.7,.31-5.66,.15-8.29-.42-2.63-.55-4.94-1.27-7.27-1.84-2.15-.54-4.3-1.01-6.49-1.4l-.51-.09c-1.72-.31-3.45-.56-5.2-.78-3.03-.39-6.11-.67-9.22-.96-2.44-.21-4.87-.42-7.22-.51-2.34-.08-4.69-.05-5.93,.54-.65,.27-1.56,.9-2.65,1.63-1.07,.73-2.24,1.46-3.42,2.11-.02,.01-.05,.03-.07,.04-1.14,.63-2.34,1.23-3.49,1.76-.32,.15-.63,.29-.95,.42-.01,.01-.03,.01-.04,.02-.01,.01-.03,.01-.04,.02-.2,.07-.39,.16-.59,.23-.04,.02-.07,.03-.11,.04-.28,.11-.55,.21-.83,.31-.07,.03-.15,.06-.23,.08-.36,.13-.73,.25-1.1,.37-.13,.04-.27,.08-.4,.12-5.07,1.51-10.07,2.09-14.99,2.53-5.06,.42-10.05,.61-15,.8l-7.41,.28-3.76,.15c-1.54,.04-2.95-.11-4.29-.31-2.68-.4-5.1-1.02-7.4-1.47-1.48-.29-2.91-.51-4.2-.56-.71-.03-1.37-.01-1.98,.08-.26,.03-.51,.08-.76,.13-.15,.04-.29,.07-.44,.12-.18,.04-.37,.1-.55,.16-.08,.03-.16,.05-.23,.08-.04,.01-.08,.03-.11,.04-.04,.01-.08,.03-.12,.04-.05,.02-.09,.04-.14,.06-.02,.01-.05,.02-.07,.03-.1,.03-.19,.08-.28,.12-.03,.01-.05,.02-.07,.03-.01,0-.02,.01-.03,.01t-.02,0c-.48,.22-.96,.46-1.46,.75-.03-.06-.05-.12-.07-.18-.04-.12-.08-.23-.12-.35-.14,.07-.28,.16-.42,.26-.13,.07-.26,.15-.39,.24-4.74,3.07-8.83,3.49-14.34,3.51-27.38,.09-19.08-5.73-33.77-6.36-.65,.17-1.33,.28-2.03,.33-.35,.02-.68,.02-1.07,.01l-.58-.04-.36-.05,.03-.17,.18-1.19c.9-.11,1.8-.18,2.7-.19,1.24-.02,2.48,.11,3.69,.33,5.27,.96,10.21,3.73,13.77,4.64,2.11,.54,4.22,.95,6.32,1.15,4.24,.42,8.73-.9,13.01-1.02,4.08-.12,6.95-2.62,10.53-4.17,1.42-.62,2.98-1.08,4.55-1.3,3.25-.42,6.04,.07,8.6,.54,2.55,.5,4.92,1.09,7.14,1.42,1.1,.16,2.16,.25,3.11,.23l3.69-.16,7.49-.26c4.98-.18,9.93-.36,14.79-.76,4.85-.41,9.68-1.01,14.04-2.34,.66-.21,1.3-.43,1.92-.68,.13-.04,.27-.1,.4-.15,.26-.12,.52-.23,.78-.35,1.12-.51,2.13-1.01,3.15-1.58,1.02-.56,1.97-1.15,2.97-1.82,1-.65,2.12-1.52,3.78-2.24,1.65-.71,3.33-.95,4.74-1.04,.62-.04,1.22-.06,1.8-.06h0c.78,0,1.52,.02,2.27,.04,2.6,.11,5.1,.33,7.61,.55,2.04,.2,4.06,.39,6.11,.61,.46,.05,.92,.1,1.38,.15,1.59,.18,3.18,.39,4.77,.64h.01c.93,.14,1.85,.29,2.78,.45,2.52,.45,5.03,.99,7.49,1.62,2.46,.61,4.86,1.34,7.07,1.81,2.2,.47,4.25,.58,6.5,.34,2.23-.23,4.56-.75,6.9-1.36l7.22-2c2.43-.67,4.87-1.32,7.32-1.94,4.9-1.24,9.84-2.4,14.88-3.3,5.03-.89,10.16-1.55,15.41-1.51,.23,0,.46,0,.69,.01,.91,0,1.83,.06,2.75,.13,4.11,.31,8.23,1.18,12.07,2.73,.89,.35,1.76,.73,2.61,1.14,.07,.04,.15,.07,.22,.11,.68,.33,1.35,.68,2,1.05,.17,.1,.34,.19,.51,.29,2.62,1.5,5.07,3.24,7.37,5.08,.02,0,.04,.02,.05,.03,.04,.03,.07,.05,.1,.08,.09,.07,.19,.15,.28,.22,.02,.01,.03,.03,.05,.04,.3,.24,.6,.49,.89,.73h.01c.08,.07,.14,.12,.21,.19,3.44,2.88,6.64,6.01,9.62,9.34,.06,.06,.11,.11,.16,.17,.01,.01,.02,.02,.02,.03,.14,.15,.27,.3,.39,.45,.05,.04,.09,.08,.12,.13,.24,.27,.47,.54,.7,.81,.06,.07,.12,.13,.16,.2,.14,.15,.26,.3,.38,.45,.04,.04,.08,.09,.11,.13,.35,.41,.69,.83,1.02,1.25,.04,.04,.07,.09,.11,.14,.06,.07,.12,.14,.17,.22,.07,.07,.12,.15,.17,.22,.48,.61,.95,1.22,1.4,1.85,.09,.13,.19,.26,.28,.39,.07,.09,.14,.19,.2,.29,1.31,1.85,2.55,3.78,3.57,5.95,.14,.31,.28,.62,.41,.94l.33,.85c.02,.06,.02,.05,.02,.03l.02,.02c.03,.06,.09,.14,.14,.21,.13,.17,.28,.35,.45,.53,.7,.74,1.59,1.5,2.5,2.21,.56,.44,1.13,.87,1.72,1.29,.86,.63,1.73,1.24,2.63,1.83t.01,0c.49,.33,1,.66,1.5,.98,4.06,2.6,8.3,5,12.63,7.18,2.17,1.08,4.36,2.11,6.58,3.05,1.11,.46,2.22,.91,3.34,1.31,.56,.2,1.12,.38,1.68,.56l.84,.25c.3,.08,.69,.21,1.03,.33,.71,.27,1.39,.58,2.03,.92,.42,.23,.83,.47,1.22,.73h.01c1.29,.84,2.44,1.78,3.52,2.74,1.09,.98,2.12,1.99,3.12,3.01h.01c.39,.41,.77,.8,1.16,1.2,.34,.36,.68,.71,1.02,1.06,1.86,1.94,3.72,3.84,5.68,5.58,.12,.12,.24,.22,.36,.33h.01c.63,.56,1.25,1.08,1.9,1.59,.05,.05,.11,.1,.17,.13,.08,.07,.16,.14,.24,.18,.39,.32,.78,.61,1.17,.88,.06,.06,.12,.1,.18,.13,.32,.24,.64,.46,.96,.67,.19,.13,.38,.25,.57,.38,.07,.04,.14,.08,.2,.13,.2,.12,.39,.24,.59,.35h.01c.59,.36,1.2,.7,1.81,1.01,.11,.06,.22,.11,.32,.16,2.96,1.48,6.14,2.48,9.46,2.89,2.01,.27,4,.33,6.09,.24,.2,0,.4-.01,.6-.03,.08,0,.16,0,.24-.01,.07,0,.14,0,.21,0h.14c.14-.01,.27-.01,.4-.01,.54-.02,1.08-.03,1.61-.03,.32-.01,.63,0,.95,.01h.3c.16,0,.33,.01,.49,.01h.16c.14,.01,.28,.01,.42,.02,.2,0,.4,0,.59,.02,.09,0,.17,.01,.25,.02,.23,0,.45,.02,.67,.03,.12,0,.23,0,.34,.02,.43,.03,.86,.06,1.28,.09,.03,0,.06,.01,.09,.01,.04,0,.09,0,.13,0,.43,.04,.85,.09,1.27,.14h.01s.08,0,.12,.01c.08,.01,.16,.02,.23,.03,.49,.05,.98,.12,1.46,.19,.14,0,.28,.03,.41,.06,.14,0,.29,.04,.42,.06,.88,.13,1.73,.28,2.59,.45h.01c.16,.02,.31,.05,.46,.09,1.7,.32,3.37,.71,5.03,1.16,.92,.24,1.83,.5,2.73,.78,.2,.06,.4,.12,.59,.19,1.5,.47,2.98,.98,4.45,1.53h.01c.07,.02,.14,.05,.21,.08,.97,.35,1.93,.73,2.88,1.12,.07,.02,.14,.05,.2,.08,.69,.28,1.37,.56,2.04,.86,.07,.03,.14,.06,.2,.09,.88,.38,1.75,.78,2.62,1.19,.1,.05,.2,.09,.3,.15,3.89,1.84,7.64,3.94,11.24,6.29,0,0,.01,0,.01,0Z"/><path class="cls-1" d="M83.31,179.62c-.08,.04-.15,.08-.23,.13-.07,.04-.13,.08-.2,.12-.02,.02-.04,.03-.07,.04h0c-.2,.13-.4,.26-.61,.39-.18,.12-.37,.24-.57,.34-.06,.04-.12,.08-.19,.11-.05,.03-.11,.06-.17,.1-.03,.01-.07,.03-.1,.05-.02,.01-.05,.02-.07,.04-.19,.09-.37,.19-.56,.29-.08,.04-.16,.08-.24,.11-.01,0-.02,.01-.03,.02-.3,.14-.61,.27-.93,.4-.02,.01-.05,.02-.07,.03-.71,.28-1.45,.53-2.22,.75-.09,.03-.19,.06-.28,.08-.09,.03-.18,.05-.27,.07l-.45,.12s-.11,.02-.16,.04c-.06,.01-.11,.02-.17,.03-.04,.01-.09,.02-.13,.03-.06,.02-.13,.04-.19,.05-.07,.01-.13,.03-.2,.04-2.51,.48-5.1,.6-8.04,.85-4.17,.06-8.31-.37-11.66-1.01-6.21-1.17-12.07-2.56-17.9-4.93-5.26-2.13-15.82,3.06-23.12,3.82-1.67,.17-3.17,.11-4.4-.32-.38-.13-.77-.27-1.15-.41h-.01c-2.97-1.07-5.94-2.21-8.92-3.24v-7.31c4.04,.66,11.03,3.12,12.91,3.8,5.08,1.84,16.07-4.6,22.54-4.6-.23,.14-.46,.28-.69,.4-.67,.36-1.31,.62-1.9,.74-.3,.06-.58,.09-.86,.1-.12,.01-.28,0-.38-.01h-.14l-.35-.07-.76,4.82-.18,1.19-.03,.17,.36,.05,.58,.04c.39,.01,.72,.01,1.07-.01,.7-.05,1.38-.16,2.03-.33,14.69,.63,6.39,6.45,33.77,6.36,5.51-.02,9.6-.44,14.34-3.51,.13-.09,.26-.17,.39-.24,.14-.1,.28-.19,.42-.26,.04,.12,.08,.23,.12,.35,.02,.06,.04,.12,.07,.18Z"/><path class="cls-1" d="M34.2,176.74c-.65,.17-1.33,.28-2.03,.33-.35,.02-.68,.02-1.07,.01l-.58-.04-.36-.05,.03-.17c1.3-.1,2.64-.14,4.01-.08Z"/><path class="cls-1" d="M428.54,252.95c-.52-.25-1.03-.5-1.55-.74-.51-.25-1.03-.49-1.56-.72l-.93-.42h-.01c-.07-.03-.15-.07-.23-.1-.1-.04-.2-.09-.3-.14-.56-.24-1.12-.48-1.68-.71-.29-.12-.57-.24-.86-.36l-.21-.09c-.7-.29-1.41-.57-2.11-.85h0c-.06-.02-.11-.04-.16-.06-1.33-.52-2.66-1-4.01-1.46h-.01c-.09-.03-.17-.06-.26-.09-2.01-.69-4.05-1.3-6.1-1.84-2.56-.68-5.14-1.26-7.75-1.69-.09-.02-.17-.04-.27-.05h-.01c-.14-.02-.28-.05-.42-.06,0,0,0-.01,0,0-.54-.1-1.1-.18-1.65-.25h-.01c-.13-.02-.26-.04-.4-.05-.29-.04-.58-.08-.88-.11-.06-.01-.13-.02-.19-.02-.01-.01-.03-.01-.04-.01-.1-.01-.21-.02-.31-.03-.24-.03-.49-.06-.73-.08-.07-.01-.15-.01-.22-.02-.28-.03-.56-.05-.84-.07-.12-.01-.23-.02-.35-.03-.05,0-.11-.01-.16-.01-.13-.01-.25-.02-.38-.02-.08,0-.16-.02-.24-.02-.09-.01-.18-.02-.27-.02-.14-.01-.27-.02-.4-.02-.14,0-.27-.02-.41-.02h-.01c-.1-.01-.21-.02-.31-.02-.29-.01-.58-.02-.87-.03-.16,0-.32-.01-.48-.01-.15,0-.3-.01-.45-.01h-.4c-.19,0-.38,0-.56,.01-.19-.01-.38,0-.57,0-.03,0-.05,0-.07,.01-.59,0-1.18,.03-1.76,.06-2.49,.18-5.16,.18-7.72-.15-2.38-.28-4.72-.85-6.96-1.66-.21-.07-.43-.14-.64-.23-.59-.22-1.17-.46-1.74-.71-.55-.25-1.09-.5-1.62-.77h-.01c-.09-.05-.17-.09-.26-.14-.07-.04-.14-.07-.21-.12h0c-.11-.05-.2-.1-.31-.16-.06-.03-.12-.07-.19-.1-.63-.35-1.26-.72-1.87-1.11-.05-.04-.11-.07-.16-.11-.03-.01-.05-.03-.08-.05-.12-.08-.23-.15-.35-.23-.11-.07-.23-.15-.34-.23-.11-.07-.23-.15-.34-.24-.31-.2-.62-.42-.92-.64-1.35-.98-2.62-2.03-3.85-3.13-.23-.19-.46-.4-.69-.62-1.78-1.62-3.46-3.32-5.1-5.01-1.69-1.74-3.36-3.47-5.09-5.01-1.73-1.54-3.55-2.88-5.47-3.57-.25-.09-.44-.15-.73-.23l-.93-.27c-.62-.19-1.23-.39-1.83-.61-1.2-.41-2.37-.88-3.53-1.35-2.32-.97-4.58-2.01-6.8-3.11-4.45-2.21-8.77-4.62-12.97-7.28-2.09-1.33-4.16-2.72-6.17-4.28-1.01-.79-2-1.6-2.99-2.63-.24-.26-.49-.53-.74-.85-.12-.17-.25-.33-.37-.54-.07-.11-.12-.17-.21-.34l-.11-.23-.09-.18-.33-.85c-.1-.24-.21-.49-.32-.73-.82-1.71-1.89-3.42-3.07-5.07-.04-.07-.09-.13-.14-.2l-.39-.54c-.65-.89-1.33-1.76-2.03-2.62-.05-.07-.11-.13-.16-.2-.52-.63-1.05-1.26-1.58-1.87-.03-.03-.05-.05-.07-.08-.06-.07-.12-.14-.18-.2-.04-.05-.08-.1-.12-.14-.11-.12-.21-.24-.32-.36-3.14-3.5-6.56-6.77-10.22-9.71-.02-.02-.04-.03-.06-.05-.05-.04-.11-.08-.16-.12-.54-.44-1.09-.86-1.64-1.27-.07-.06-.13-.1-.2-.15-.38-.29-.77-.57-1.16-.84-.05-.04-.09-.07-.13-.09-.41-.3-.81-.58-1.23-.85h0s-.09-.06-.13-.08c-.43-.3-.87-.57-1.31-.85-.07-.04-.13-.08-.2-.11-.23-.15-.46-.28-.69-.41-.05-.03-.09-.06-.14-.08-.26-.16-.53-.3-.79-.45-.08-.04-.15-.08-.22-.12-1.24-.67-2.51-1.26-3.82-1.77-2.56-1.02-5.25-1.69-8.01-2.06-1.72-.23-3.46-.35-5.22-.35h-.01c-.08,0-.17,0-.25,0-4.7-.02-9.49,.6-14.27,1.47-4.79,.88-9.57,2.01-14.34,3.24-2.39,.62-4.78,1.26-7.16,1.91l-7.22,2.01c-2.49,.66-5.04,1.25-7.76,1.54-2.7,.31-5.66,.15-8.29-.42-2.63-.55-4.94-1.27-7.27-1.84-2.15-.54-4.3-1.01-6.49-1.4l-.51-.09c-1.72-.31-3.45-.56-5.2-.78-3.03-.39-6.11-.67-9.22-.96-2.44-.21-4.87-.42-7.22-.51-2.34-.08-4.69-.05-5.93,.54-.65,.27-1.56,.9-2.65,1.63-1.07,.73-2.24,1.46-3.42,2.11-.02,.01-.05,.03-.07,.04-1.14,.63-2.34,1.23-3.49,1.76-.32,.15-.63,.29-.95,.42-.01,.01-.03,.01-.04,.02-.01,.01-.03,.01-.04,.02-.2,.07-.39,.16-.59,.23-.04,.02-.07,.03-.11,.04-.28,.11-.55,.21-.83,.31-.07,.03-.15,.06-.23,.08-.36,.13-.73,.25-1.1,.37-.13,.04-.27,.08-.4,.12-5.07,1.51-10.07,2.09-14.99,2.53-5.06,.42-10.05,.61-15,.8l-7.41,.28-3.76,.15c-1.54,.04-2.95-.11-4.29-.31-2.68-.4-5.1-1.02-7.4-1.47-1.48-.29-2.91-.51-4.2-.56-.71-.03-1.37-.01-1.98,.08-.26,.03-.51,.08-.76,.13-.15,.04-.29,.07-.44,.12-.18,.04-.37,.1-.55,.16-.08,.03-.16,.05-.23,.08-.04,.01-.08,.03-.11,.04-.04,.01-.08,.03-.12,.04-.05,.02-.09,.04-.14,.06-.02,.01-.05,.02-.07,.03-.1,.03-.19,.08-.28,.12-.03,.01-.05,.02-.07,.03-.01,0-.02,.01-.03,.01t-.02,0c-.48,.22-.96,.46-1.46,.75-.03-.06-.05-.12-.07-.18-.04-.12-.08-.23-.12-.35,.01-.01,.02-.01,.03-.02,1.6-.96,3-1.54,4.54-1.75,.51-.07,1.05-.1,1.63-.09,1.39,.03,2.95,.26,4.56,.58,2.29,.44,4.71,1.06,7.39,1.47,1.34,.2,2.76,.35,4.29,.31l3.76-.15,7.41-.28c4.96-.19,9.95-.38,15-.8,4.54-.4,9.13-.92,13.8-2.2,.33-.08,.67-.17,1-.27,.19-.06,.39-.12,.59-.18,1.3-.41,2.6-.9,3.9-1.49,1.16-.54,2.39-1.15,3.56-1.8,1.17-.65,2.34-1.38,3.42-2.11,.47-.32,.91-.61,1.3-.87,.52-.34,.98-.61,1.35-.76,1.23-.59,3.59-.63,5.92-.54,2.35,.09,4.79,.29,7.22,.51,2.59,.24,5.16,.48,7.7,.77,2.18,.25,4.33,.55,6.46,.93,.09,.01,.17,.02,.26,.04,2.36,.41,4.69,.91,7,1.49,2.34,.57,4.65,1.28,7.28,1.84,2.62,.57,5.58,.73,8.28,.41,2.72-.29,5.28-.88,7.76-1.53l7.22-2.01c2.39-.66,4.77-1.29,7.16-1.91,4.77-1.23,9.56-2.36,14.34-3.24,4.61-.84,9.24-1.45,13.79-1.47h.48c1.66,0,3.32,.1,4.94,.29,2.96,.35,5.83,1.05,8.56,2.13,1.26,.49,2.49,1.07,3.69,1.71,.07,.03,.14,.07,.21,.11,.35,.19,.7,.39,1.05,.59,.04,.02,.09,.05,.13,.08,.2,.11,.4,.23,.6,.35,.06,.04,.13,.08,.19,.12,.44,.27,.88,.54,1.31,.83,.05,.03,.1,.06,.14,.09h.02s.06,.05,.09,.07c.04,.03,.07,.05,.1,.07,.43,.29,.86,.58,1.28,.88,.05,.04,.09,.07,.14,.1,.48,.34,.95,.69,1.41,1.05,.07,.04,.13,.09,.19,.14h.01c.43,.33,.85,.65,1.27,.99,.18,.15,.36,.29,.54,.44h.01c.07,.07,.14,.12,.21,.18,3.39,2.79,6.57,5.87,9.51,9.15,.29,.32,.57,.64,.84,.96,.07,.07,.12,.13,.18,.2,.53,.61,1.04,1.23,1.55,1.85,.05,.07,.11,.13,.15,.2,.61,.74,1.19,1.5,1.75,2.26,.2,.27,.39,.54,.59,.82,.05,.07,.1,.15,.15,.22,1.09,1.56,2.09,3.15,2.85,4.77,.12,.24,.23,.48,.33,.73l.33,.85,.08,.18,.12,.23c.09,.17,.13,.23,.2,.34,.13,.21,.25,.37,.37,.53,.25,.33,.5,.6,.75,.86,.98,1.03,1.97,1.84,2.98,2.63,2.01,1.56,4.08,2.95,6.18,4.28,4.2,2.65,8.52,5.06,12.96,7.27,2.22,1.11,4.48,2.15,6.8,3.12,1.16,.47,2.33,.93,3.53,1.35,.6,.21,1.21,.41,1.83,.6l.93,.28c.29,.08,.49,.14,.73,.23,1.92,.69,3.75,2.03,5.48,3.56,.61,.54,1.2,1.1,1.8,1.69,.65,.63,1.3,1.29,1.95,1.96,.45,.45,.89,.91,1.34,1.37,3.02,3.12,6.2,6.3,9.9,8.94,.08,.06,.17,.12,.25,.17,.11,.09,.23,.17,.34,.23h0c.25,.19,.5,.35,.75,.52,.09,.06,.18,.12,.28,.18,.08,.05,.16,.11,.24,.15,.2,.14,.41,.27,.63,.4,.05,.03,.1,.07,.16,.09h.01s.01,.02,.01,.02c.26,.16,.52,.31,.78,.45,0,0,.01,0,.01,.01,.2,.12,.39,.23,.59,.33,.07,.04,.14,.08,.21,.11,.37,.2,.75,.39,1.13,.57,.1,.06,.19,.1,.29,.14,.17,.09,.34,.17,.51,.24,3.01,1.37,6.24,2.31,9.55,2.71,.93,.12,1.87,.18,2.82,.22,1.84,.15,3.68,.16,5.63,.04h.03c.13-.01,.25-.01,.38-.01,.07,0,.15,0,.23,0h.01c.2-.01,.39-.01,.6-.02h.39s.01-.01,.01,0c.42-.01,.82-.01,1.24-.01,.19,0,.37,.01,.56,.01h.36c.1,.01,.2,.01,.3,.01,.18,.01,.35,.01,.53,.02,.13,.01,.27,.01,.41,.02,.14,0,.29,.01,.44,.02,.08,0,.16,.01,.24,.02,.2,0,.41,.01,.61,.03,.11,.01,.23,.01,.34,.02,.34,.02,.67,.05,1.01,.08,.02,0,.04,0,.06,.01,.07,0,.15,.01,.22,.02,.34,.03,.67,.06,1,.1,.08,.01,.15,.02,.22,.03,.05,0,.1,.01,.14,.01,.03,0,.06,0,.09,0,.39,.05,.78,.1,1.17,.16,.13,.01,.27,.03,.4,.05h.01c.49,.07,.98,.14,1.47,.23,.28,.04,.57,.09,.85,.13h0c.14,.03,.28,.06,.42,.08h0c2.08,.38,4.13,.84,6.15,1.39,.26,.07,.51,.14,.76,.22h.03c.62,.17,1.24,.35,1.86,.54,1.57,.49,3.11,1.01,4.64,1.57h.01c.08,.03,.15,.05,.22,.08,1.18,.43,2.35,.89,3.5,1.37,.06,.02,.12,.04,.18,.07,.71,.29,1.41,.59,2.1,.9,.07,.02,.14,.05,.21,.09,.95,.41,1.89,.85,2.82,1.29h.01c.08,.05,.17,.09,.25,.13,1.38,.67,2.74,1.36,4.08,2.09Z"/></svg>